<?xml version="1.0" encoding="utf-8"?>
<!-- Generator: Adobe Illustrator 25.2.3, SVG Export Plug-In . SVG Version: 6.00 Build 0)  -->
<svg version="1.1" id="Layer_1" xmlns="http://www.w3.org/2000/svg" xmlns:xlink="http://www.w3.org/1999/xlink" x="0px" y="0px"
	 viewBox="0 0 105 105" style="enable-background:new 0 0 105 105;" xml:space="preserve">
<style type="text/css">
	.st0{fill:url(#SVGID_1_);}
	.st1{fill:url(#SVGID_2_);}
	.st2{fill:url(#SVGID_3_);}
	.st3{fill:url(#SVGID_4_);}
</style>
<linearGradient id="SVGID_1_" gradientUnits="userSpaceOnUse" x1="39.01" y1="82.73" x2="66.51" y2="82.73" gradientTransform="matrix(1 0 0 -1 0 106)">
	<stop  offset="0" style="stop-color:#FF318C"/>
	<stop  offset="0.15" style="stop-color:#FB348C"/>
	<stop  offset="0.28" style="stop-color:#F03C8C"/>
	<stop  offset="0.42" style="stop-color:#DE4A8C"/>
	<stop  offset="0.54" style="stop-color:#C45D8B"/>
	<stop  offset="0.67" style="stop-color:#A2778B"/>
	<stop  offset="0.79" style="stop-color:#79958A"/>
	<stop  offset="0.91" style="stop-color:#49B98A"/>
	<stop  offset="1" style="stop-color:#21D789"/>
</linearGradient>
<path class="st0" d="M39,42l2.1-37.5l21.8,12.1L39,42z"/>
<linearGradient id="SVGID_2_" gradientUnits="userSpaceOnUse" x1="4005.0071" y1="-730.9586" x2="5814.2871" y2="-1081.0583" gradientTransform="matrix(1 0 0 -1 0 106)">
	<stop  offset="9.000000e-02" style="stop-color:#21D789"/>
	<stop  offset="0.9" style="stop-color:#009AE5"/>
</linearGradient>
<path class="st1" d="M82.5,59.5l-23.6-8.2L44.8,82.5l16.6,12.8l24,5.2l15.1-34.2L82.5,59.5z"/>
<linearGradient id="SVGID_3_" gradientUnits="userSpaceOnUse" x1="27.9966" y1="89.319" x2="13.8766" y2="-5.421" gradientTransform="matrix(1 0 0 -1 0 106)">
	<stop  offset="9.000000e-02" style="stop-color:#21D789"/>
	<stop  offset="0.9" style="stop-color:#009AE5"/>
</linearGradient>
<path class="st2" d="M39,42l2.1-37.5L13.4,22L4.5,75.1L39,42z"/>
<linearGradient id="SVGID_4_" gradientUnits="userSpaceOnUse" x1="3339.9575" y1="3698.2786" x2="-5278.1758" y2="-5861.7915" gradientTransform="matrix(1 0 0 -1 0 106)">
	<stop  offset="9.000000e-02" style="stop-color:#21D789"/>
	<stop  offset="0.9" style="stop-color:#009AE5"/>
</linearGradient>
<path class="st3" d="M98.6,33.3L86.2,8.2l-23.3,8.4L39,42l-34.5,33l31.1,22.7l39.1-35.3L98.6,33.3z"/>
</svg>
