<svg fill="none" height="70" viewBox="0 0 70 70" width="70" xmlns="http://www.w3.org/2000/svg"
     xmlns:xlink="http://www.w3.org/1999/xlink">
    <linearGradient id="a" gradientUnits="userSpaceOnUse" x1="21.2209" x2="63.8646" y1="17.4052" y2="25.9099">
        <stop offset=".242" stop-color="#3bea62"/>
        <stop offset=".857" stop-color="#fcf84a"/>
    </linearGradient>
    <linearGradient id="b" gradientUnits="userSpaceOnUse" x1="16.7187" x2="57.2375" y1="4.91121" y2="67.1757">
        <stop offset=".018" stop-color="#3bea62"/>
        <stop offset=".786" stop-color="#087cfa"/>
    </linearGradient>
    <linearGradient id="c" gradientUnits="userSpaceOnUse" x1="16.2938" x2="67.9463" y1="39.3564" y2="58.0127">
        <stop offset=".121" stop-color="#1faeb5"/>
        <stop offset=".975" stop-color="#087cfa"/>
    </linearGradient>
    <linearGradient id="d" gradientUnits="userSpaceOnUse" x1="1.43441" x2="68.153" y1="42.2642" y2="12.6941">
        <stop offset=".121" stop-color="#1faeb5"/>
        <stop offset=".856" stop-color="#fcf84a"/>
    </linearGradient>

    <path d="m64.957 8.29472c-.8729-.45744-1.8107-.7783-2.7809-.95141-.5862 0-37.9905-7.168333-39.9666-7.3148714-.9514-.073269-1.9761 0-2.9275.1465384-17.34946 2.560043-21.74123 23.700923-7.3936 32.552223 3.3671 2.0483 7.3925 2.7799 11.2725 1.9017 6.8074-1.4632 37.4044-8.9979 39.3804-9.4364 8.4916-1.8284 10.3211-12.7291 2.4168-16.89778z"
          fill="url(#a)"/>
    <path d="m65.5771 40.6643c-1.4698-1.6731-28.0708-31.56582-33.7289-36.43876-1.1023-.94594-2.4245-1.8186-3.8942-2.61909-2.6405-1.380299-5.6502-1.889065-8.5976-1.453356-15.72555 2.399286-20.86969 19.781506-11.09647 29.601806 1.02795 1.0903 30.27537 33.239 30.56957 33.6031 1.3232 1.5999 2.9395 3.1276 4.9976 4.3634 3.3791 2.1095 7.4942 2.7634 11.4628 1.8918 14.4023-3.2008 19.0324-19.2752 10.2872-28.9489z"
          fill="url(#b)"/>
    <path d="m59.7937 36.4519c-.5839-.2909-1.1668-.5829-1.8229-.8016-.5107-.1454-39.7326-12.5399-40.6075-12.7586-1.4539-.3632-2.965-.4375-4.4475-.2188-13.99768 2.0417-17.57037 19.1747-5.97855 26.3922 2.69783 1.6764 38.49355 19.611 39.44175 19.9751 2.7743 1.03 5.7879 1.2329 8.6752.584 16.7688-3.646 20.1949-25.0799 4.7395-33.1723z"
          fill="url(#c)"/>
    <path d="m64.9696 8.23783c-1.3123-.72832-2.8433-.94703-4.3743-.72832-.8016.14545-1.531.29089-2.2604.58287-3.4261 1.38555-48.33567 15.16452-49.57468 15.74742-10.42498 4.5197-12.10251 18.8093-1.82298 25.2253 2.74012 1.7022 6.04196 2.2525 9.18596 1.531 1.2401-.292 2.4791-.6562 3.4994-1.1669 5.5411-2.6245 44.9828-24.9333 45.7844-25.3707 5.9053-3.4262 6.416-12.1747-.4374-15.82067z"
          fill="url(#d)"/>
    <path d="m56 14h-42v42h42z" fill="#000"/>

    <path d="m35.8667 19.25h3.4797v12.8065h6.8905v2.9235h-10.3702zm-16.6867 0h6.1251c4.9415 0 8.3523 3.4108 8.3523 7.7949v.0701c0 4.4542-3.4108 7.865-8.3523 7.865h-6.1251zm3.4797 3.1327v9.4658h2.6454c2.8535 0 4.7324-1.8801 4.7324-4.6634v-.0701c0-2.7845-1.8789-4.7335-4.7324-4.7335h-2.6454z"
          fill="#fff"/>
    <path d="m35.61 49.6499h-15.75v2.6834h15.75z" fill="#fff"/>


</svg>