<?xml version="1.0" encoding="utf-8"?>
<!-- Generator: Adobe Illustrator 25.2.3, SVG Export Plug-In . SVG Version: 6.00 Build 0)  -->
<svg version="1.1" id="Layer_1" xmlns="http://www.w3.org/2000/svg" xmlns:xlink="http://www.w3.org/1999/xlink" x="0px" y="0px"
	 viewBox="0 0 70 70" style="enable-background:new 0 0 70 70;" xml:space="preserve">
<style type="text/css">
	.st0{fill:url(#SVGID_1_);}
	.st1{fill:url(#SVGID_2_);}
	.st2{fill:url(#SVGID_3_);}
	.st3{fill:url(#SVGID_4_);}
</style>
<linearGradient id="SVGID_1_" gradientUnits="userSpaceOnUse" x1="21.2286" y1="54.6336" x2="63.8723" y2="46.1289" gradientTransform="matrix(1 0 0 -1 0 72)">
	<stop  offset="0.242" style="stop-color:#3BEA62"/>
	<stop  offset="0.857" style="stop-color:#FCF84A"/>
</linearGradient>
<path class="st0" d="M65,8.3c-0.9-0.5-1.8-0.8-2.8-1c-0.6,0-38-7.2-40-7.3c-1-0.1-2,0-2.9,0.1C1.9,2.7-2.5,23.9,11.9,32.7
	c3.4,2,7.4,2.8,11.3,1.9c6.8-1.5,37.4-9,39.4-9.4C71,23.4,72.9,12.5,65,8.3L65,8.3z"/>
<linearGradient id="SVGID_2_" gradientUnits="userSpaceOnUse" x1="16.9939" y1="67.2679" x2="57.5127" y2="5.0034" gradientTransform="matrix(1 0 0 -1 0 72)">
	<stop  offset="1.800000e-02" style="stop-color:#3BEA62"/>
	<stop  offset="0.786" style="stop-color:#087CFA"/>
</linearGradient>
<path class="st1" d="M65.6,40.7C64.1,39,37.5,9.1,31.8,4.2c-1.1-0.9-2.4-1.8-3.9-2.6c-2.6-1.4-5.7-1.9-8.6-1.5
	C3.6,2.6-1.5,19.9,8.3,29.8c1,1.1,30.3,33.2,30.6,33.6c1.3,1.6,2.9,3.1,5,4.4c3.4,2.1,7.5,2.8,11.5,1.9
	C69.7,66.4,74.3,50.3,65.6,40.7z"/>
<linearGradient id="SVGID_3_" gradientUnits="userSpaceOnUse" x1="16.2848" y1="32.6188" x2="67.9373" y2="13.9625" gradientTransform="matrix(1 0 0 -1 0 72)">
	<stop  offset="0.121" style="stop-color:#1FAEB5"/>
	<stop  offset="0.975" style="stop-color:#087CFA"/>
</linearGradient>
<path class="st2" d="M59.8,36.5c-0.6-0.3-1.2-0.6-1.8-0.8c-0.5-0.1-39.7-12.5-40.6-12.8c-1.5-0.4-3-0.4-4.4-0.2
	c-14,2-17.6,19.2-6,26.4c2.7,1.7,38.5,19.6,39.4,20c2.8,1,5.8,1.2,8.7,0.6C71.8,66,75.2,44.5,59.8,36.5z"/>
<linearGradient id="SVGID_4_" gradientUnits="userSpaceOnUse" x1="1.4453" y1="29.7112" x2="68.1639" y2="59.2813" gradientTransform="matrix(1 0 0 -1 0 72)">
	<stop  offset="0.121" style="stop-color:#1FAEB5"/>
	<stop  offset="0.856" style="stop-color:#FCF84A"/>
</linearGradient>
<path class="st3" d="M65,8.2c-1.3-0.7-2.8-0.9-4.4-0.7c-0.8,0.1-1.5,0.3-2.3,0.6C54.9,9.5,10,23.3,8.8,23.8
	C-1.7,28.4-3.3,42.6,6.9,49.1c2.7,1.7,6,2.3,9.2,1.5c1.2-0.3,2.5-0.7,3.5-1.2c5.5-2.6,45-24.9,45.8-25.4C71.3,20.6,71.8,11.9,65,8.2
	z"/>
</svg>
