<svg width="60" height="60" viewBox="0 0 60 60" fill="none" xmlns="http://www.w3.org/2000/svg">
<path d="M42.5 53C36.7225 53 32 48.2775 32 42.5C32 36.7225 36.7225 32 42.5 32C48.2775 32 53 36.7225 53 42.5C53 48.2775 48.2775 53 42.5 53Z" fill="url(#paint0_linear)"/>
<path d="M42.4998 28C36.6722 28 32 23.2775 32 17.5C32 11.6722 36.7224 7 42.4998 7C48.3274 7 52.9996 11.7225 52.9996 17.5C53.0498 23.2775 48.3274 28 42.4998 28Z" fill="url(#paint1_linear)"/>
<path d="M28 7H7V28H28V7Z" fill="black"/>
<path d="M17.4998 53C11.6999 53 7 48.3 7 42.5C7 36.7 11.6999 32 17.4998 32C23.2997 32 27.9996 36.7 27.9996 42.5C28.0496 48.25 23.3497 53 17.4998 53Z" fill="url(#paint2_linear)"/>
<defs>
<linearGradient id="paint0_linear" x1="23.8037" y1="23.7895" x2="49.796" y2="49.7797" gradientUnits="userSpaceOnUse">
<stop stop-color="#F7C72A"/>
<stop offset="0.4296" stop-color="#D911A5"/>
<stop offset="1" stop-color="#9E00E9"/>
</linearGradient>
<linearGradient id="paint1_linear" x1="37.1649" y1="12.0913" x2="89.4265" y2="64.3544" gradientUnits="userSpaceOnUse">
<stop stop-color="#F7C72A"/>
<stop offset="0.4296" stop-color="#D911A5"/>
<stop offset="1" stop-color="#9E00E9"/>
</linearGradient>
<linearGradient id="paint2_linear" x1="3.77919" y1="28.7173" x2="41.0787" y2="66.0158" gradientUnits="userSpaceOnUse">
<stop stop-color="#F7C72A"/>
<stop offset="0.4296" stop-color="#D911A5"/>
<stop offset="1" stop-color="#9E00E9"/>
</linearGradient>
</defs>
</svg>
