<svg width="105" height="105" viewBox="0 0 105 105" fill="none" xmlns="http://www.w3.org/2000/svg">
<path d="M89.06 41.63L100.5 67L80.92 100.5L68.86 71.22L89.06 41.63Z" fill="url(#paint0_linear)"/>
<path d="M68.86 71.22L80.92 100.5L50.58 90.07L68.86 71.22Z" fill="#B74AF7"/>
<path d="M72.13 31.61L65.91 4.5H31.42L4.5 45.68L12.29 64.6L4.5 81.87L60.25 34.44L72.13 31.61Z" fill="url(#paint1_linear)"/>
<path d="M100.5 24.88L60.25 34.44L4.5 81.87L40.46 100.5L68.86 71.22L100.5 24.88Z" fill="url(#paint2_linear)"/>
<path d="M22.5 22.5H82.5V82.5H22.5V22.5Z" fill="black"/>
<path d="M28.13 71.25H50.63V75H28.13V71.25Z" fill="white"/>
<path d="M26.44 42.81V42.74C26.4343 41.0459 26.7676 39.3677 27.4203 37.8044C28.0729 36.241 29.0318 34.824 30.2404 33.6369C31.449 32.4497 32.8829 31.5163 34.4577 30.8918C36.0324 30.2672 37.7163 29.9639 39.41 30C42.9721 29.8122 46.4657 31.0294 49.14 33.39L45.71 37.53C43.971 35.867 41.6458 34.9578 39.24 35C35.24 35 32.13 38.5 32.13 42.7V42.77C32.13 47.3 35.24 50.62 39.63 50.62C41.4508 50.6735 43.2423 50.1522 44.75 49.13V45.57H39.27V40.87H50V51.61C47.0671 54.1538 43.3124 55.5498 39.43 55.54C31.74 55.54 26.44 50.13 26.44 42.81Z" fill="white"/>
<path d="M52.3 42.81V42.74C52.3059 41.0304 52.6544 39.3393 53.325 37.7667C53.9956 36.1941 54.9747 34.772 56.2043 33.5843C57.434 32.3965 58.8893 31.4674 60.4842 30.8518C62.0791 30.2361 63.7813 29.9465 65.49 30C73.12 30 78.6 35.69 78.6 42.72V42.79C78.6022 44.5037 78.2599 46.2005 77.5934 47.7794C76.927 49.3583 75.9501 50.7871 74.7207 51.9811C73.4913 53.1751 72.0344 54.1098 70.4367 54.7298C68.839 55.3497 67.133 55.6422 65.42 55.59C57.78 55.54 52.3 49.85 52.3 42.81ZM72.91 42.81V42.74C72.9408 41.7362 72.7699 40.7365 72.4076 39.8C72.0452 38.8635 71.4987 38.0091 70.8004 37.2875C70.102 36.5658 69.2661 35.9916 68.3419 35.5987C67.4178 35.2058 66.4242 35.0022 65.42 35C64.4234 34.9966 63.4364 35.1946 62.5182 35.5821C61.6 35.9695 60.7695 36.5384 60.0765 37.2547C59.3836 37.971 58.8425 38.8199 58.4857 39.7504C58.1288 40.681 57.9637 41.674 58 42.67V42.74C57.9652 43.7475 58.1332 44.7517 58.4943 45.693C58.8553 46.6343 59.4019 47.4933 60.1015 48.2191C60.8012 48.9449 61.6397 49.5226 62.5671 49.9179C63.4945 50.3131 64.4919 50.5179 65.5 50.52C66.4993 50.5222 67.4887 50.322 68.4085 49.9315C69.3283 49.541 70.1594 48.9682 70.8519 48.2478C71.5443 47.5273 72.0837 46.674 72.4374 45.7395C72.7911 44.8049 72.9519 43.8084 72.91 42.81Z" fill="white"/>
<defs>
<linearGradient id="paint0_linear" x1="99.03" y1="59.18" x2="61.54" y2="90.91" gradientUnits="userSpaceOnUse">
<stop stop-color="#087CFA"/>
<stop offset="0.02" stop-color="#0D7BFA"/>
<stop offset="0.37" stop-color="#5566F9"/>
<stop offset="0.66" stop-color="#8A57F8"/>
<stop offset="0.88" stop-color="#AB4EF7"/>
<stop offset="1" stop-color="#B74AF7"/>
</linearGradient>
<linearGradient id="paint1_linear" x1="2543.33" y1="2655.2" x2="4321.28" y2="886.947" gradientUnits="userSpaceOnUse">
<stop stop-color="#087CFA"/>
<stop offset="0.02" stop-color="#0D7BFA"/>
<stop offset="0.37" stop-color="#5566F9"/>
<stop offset="0.66" stop-color="#8A57F8"/>
<stop offset="0.88" stop-color="#AB4EF7"/>
<stop offset="1" stop-color="#B74AF7"/>
</linearGradient>
<linearGradient id="paint2_linear" x1="17.84" y1="88.36" x2="87.09" y2="43.86" gradientUnits="userSpaceOnUse">
<stop stop-color="#087CFA"/>
<stop offset="0.1" stop-color="#1598D3"/>
<stop offset="0.22" stop-color="#23B6AA"/>
<stop offset="0.35" stop-color="#2DCC8B"/>
<stop offset="0.46" stop-color="#35DD74"/>
<stop offset="0.57" stop-color="#39E767"/>
<stop offset="0.67" stop-color="#3BEA62"/>
</linearGradient>
</defs>
</svg>
