<?xml version="1.0" encoding="utf-8"?>
<!-- Generator: Adobe Illustrator 25.2.3, SVG Export Plug-In . SVG Version: 6.00 Build 0)  -->
<svg version="1.1" id="Layer_1" xmlns="http://www.w3.org/2000/svg" xmlns:xlink="http://www.w3.org/1999/xlink" x="0px" y="0px"
	 viewBox="0 0 105 105" style="enable-background:new 0 0 105 105;" xml:space="preserve">
<style type="text/css">
	.st0{fill:#FCF84A;}
	.st1{fill:#07C3F2;}
	.st2{fill:url(#SVGID_1_);}
	.st3{fill:url(#SVGID_2_);}
	.st4{fill:url(#SVGID_3_);}
</style>
<path class="st0" d="M97.5,80.8L81.6,97.6c-0.9,0.9-1.9,1.6-3.1,2.1c-1.2,0.5-2.4,0.8-3.7,0.8s-2.5-0.3-3.7-0.8
	c-1.2-0.5-2.2-1.2-3.1-2.1c-1.4-1.5-2.3-3.5-2.5-5.6c-0.2-2.1,0.4-4.2,1.6-5.9l13-19.1c1.6-2.4,4.1-4.1,6.9-4.6
	c2.8-0.6,5.8,0,8.2,1.5c1.4,0.9,2.5,2,3.4,3.4c0.9,1.4,1.4,2.9,1.6,4.5c0.2,1.6,0,3.3-0.5,4.8C99.4,78.2,98.6,79.6,97.5,80.8z"/>
<path class="st1" d="M82.4,40l-63.7-1.1c-3.1-0.1-6.1-1.1-8.5-3C7.8,34,6,31.4,5.1,28.5c-0.6-2.1-0.7-4.2-0.4-6.3
	C5,20,5.8,18,7.1,16.2c1.2-1.8,2.8-3.2,4.6-4.3c1.9-1.1,3.9-1.7,6.1-1.9l63.5-5.4c4.2-0.4,8.3,0.8,11.8,3.2c3.4,2.4,5.9,6,6.9,10
	c0.7,2.6,0.8,5.4,0.2,8.1c-0.6,2.7-1.7,5.2-3.4,7.3c-1.7,2.1-3.9,3.9-6.3,5C87.9,39.5,85.2,40.1,82.4,40z"/>
<linearGradient id="SVGID_1_" gradientUnits="userSpaceOnUse" x1="45.2885" y1="72.6034" x2="56.2885" y2="45.3234" gradientTransform="matrix(1 0 0 -1 0 106)">
	<stop  offset="0.15" style="stop-color:#07C3F2"/>
	<stop  offset="1" style="stop-color:#6B57FF"/>
</linearGradient>
<path class="st2" d="M12.8,96.4c-2.4-1.8-4.3-4-5.7-6.6s-2.2-5.5-2.4-8.4c-0.2-3,0.3-5.9,1.4-8.6c1.1-2.7,2.8-5.2,4.9-7.2L70.6,9.3
	c3-2.9,7-4.6,11.2-4.8c4.2-0.2,8.3,1,11.6,3.5c2,1.5,3.7,3.4,4.9,5.6s2,4.6,2.2,7.1c0.2,2.5-0.1,5-0.9,7.3c-0.8,2.4-2.1,4.5-3.8,6.3
	L39.5,94c-3.4,3.6-8,5.8-12.9,6.3C21.7,100.7,16.8,99.3,12.8,96.4z"/>
<linearGradient id="SVGID_2_" gradientUnits="userSpaceOnUse" x1="38.5793" y1="19.2199" x2="50.0093" y2="77.7299" gradientTransform="matrix(1 0 0 -1 0 106)">
	<stop  offset="9.000000e-02" style="stop-color:#FCF84A"/>
	<stop  offset="0.46" style="stop-color:#6B57FF"/>
	<stop  offset="0.76" style="stop-color:#6B57FF"/>
	<stop  offset="0.83" style="stop-color:#5074FC"/>
	<stop  offset="0.99" style="stop-color:#0CBDF3"/>
	<stop  offset="1" style="stop-color:#07C3F2"/>
</linearGradient>
<path class="st3" d="M68.2,97.6L8.4,34.2c-1.3-1.4-2.4-3.1-3-4.9c-0.7-1.8-1-3.8-0.9-5.7C4.6,21.6,5.1,19.7,6,18s2.1-3.3,3.5-4.6
	c1.5-1.3,3.3-2.3,5.2-2.9c1.9-0.6,3.9-0.8,5.9-0.6c2,0.2,3.9,0.9,5.6,1.8c1.7,1,3.2,2.3,4.4,3.9l51.7,70.1c1.3,1.7,1.9,3.9,1.8,6
	s-1,4.2-2.5,5.8c-0.9,0.9-1.9,1.6-3.1,2.1c-1.2,0.5-2.4,0.7-3.7,0.7c-1.3,0-2.5-0.3-3.6-0.8C70,99.2,69,98.5,68.2,97.6z"/>
<linearGradient id="SVGID_3_" gradientUnits="userSpaceOnUse" x1="92.5595" y1="34.024" x2="8.0295" y2="23.894" gradientTransform="matrix(1 0 0 -1 0 106)">
	<stop  offset="0" style="stop-color:#FCF84A"/>
	<stop  offset="0.5" style="stop-color:#6B57FF"/>
	<stop  offset="1" style="stop-color:#07C3F2"/>
</linearGradient>
<path class="st4" d="M92.1,84.1L29.8,99.7c-3.2,0.8-6.5,0.8-9.6,0c-3.2-0.8-6.1-2.3-8.5-4.4c-2.5-2.1-4.4-4.8-5.5-7.9
	c-1.2-3-1.6-6.3-1.3-9.5c0.5-5.1,3-9.8,6.9-13.1c3.9-3.4,8.8-5.1,14-4.9l64.2,2.3c2.9,0.1,5.6,1.3,7.6,3.4c2,2.1,3.1,4.8,3.1,7.7
	c0,2.5-0.8,4.9-2.3,6.9C96.6,82.1,94.5,83.5,92.1,84.1z"/>
</svg>
