<svg width="105" height="105" viewBox="0 0 105 105" fill="none" xmlns="http://www.w3.org/2000/svg">
<path d="M97.47 80.8098L81.6 97.5798C80.7369 98.4979 79.695 99.2296 78.5384 99.7297C77.3818 100.23 76.1351 100.488 74.875 100.488C73.6149 100.488 72.3682 100.23 71.2116 99.7297C70.055 99.2296 69.0131 98.4979 68.15 97.5798C66.7218 96.0529 65.8556 94.0854 65.6938 92.0009C65.5321 89.9163 66.0844 87.8388 67.26 86.1098L80.24 66.9998C81.86 64.6042 84.3524 62.9369 87.1849 62.354C90.0175 61.771 92.9657 62.3186 95.4 63.8798C96.7718 64.7585 97.9328 65.9292 98.8 67.3083C99.6673 68.6874 100.219 70.2408 100.417 71.8579C100.615 73.475 100.453 75.1158 99.9438 76.6632C99.4344 78.2106 98.5897 79.6265 97.47 80.8098Z" fill="#FCF84A"/>
<path d="M82.43 40.0002L18.73 38.8602C15.6485 38.8018 12.6659 37.7618 10.2163 35.8913C7.76674 34.0208 5.97787 31.4175 5.10999 28.4602C4.50802 26.4048 4.37049 24.2412 4.70733 22.1261C5.04418 20.011 5.84699 17.9973 7.05767 16.2305C8.26835 14.4638 9.85663 12.9883 11.7076 11.9108C13.5585 10.8332 15.6259 10.1806 17.76 10.0002L81.24 4.57017C85.4168 4.21655 89.584 5.35168 93.0045 7.77472C96.4249 10.1978 98.8781 13.7526 99.93 17.8102C100.617 20.4593 100.682 23.2314 100.119 25.9096C99.5567 28.5879 98.3821 31.0997 96.6874 33.2486C94.9927 35.3974 92.8239 37.1251 90.3505 38.2963C87.8771 39.4676 85.1662 40.0508 82.43 40.0002Z" fill="#07C3F2"/>
<path d="M12.82 96.38C10.4438 94.6226 8.4827 92.3647 7.07519 89.766C5.66768 87.1673 4.84816 84.2911 4.67456 81.3408C4.50095 78.3904 4.9775 75.438 6.07052 72.6921C7.16353 69.9462 8.84634 67.4739 11 65.45L70.57 9.33001C73.6111 6.46194 77.5677 4.76061 81.7413 4.5264C85.915 4.29219 90.0371 5.54018 93.38 8.05001C95.3782 9.54451 97.0381 11.4444 98.2508 13.6252C99.4635 15.806 100.202 18.2184 100.417 20.7044C100.632 23.1904 100.32 25.6938 99.4999 28.0505C98.6801 30.4073 97.3716 32.5643 95.66 34.38L39.53 94C36.1385 97.5932 31.5481 99.8195 26.6266 100.258C21.7051 100.697 16.7934 99.317 12.82 96.38Z" fill="url(#paint0_linear)"/>
<path d="M68.15 97.6002L8.42999 34.2102C7.09258 32.791 6.05648 31.1157 5.38417 29.2852C4.71187 27.4546 4.4173 25.5069 4.51822 23.5595C4.61915 21.612 5.11347 19.7052 5.97139 17.954C6.82931 16.2028 8.03304 14.6435 9.50999 13.3702C11.0192 12.0695 12.7808 11.0946 14.6843 10.5063C16.5879 9.91812 18.5924 9.72935 20.5723 9.95184C22.5522 10.1743 24.4648 10.8033 26.1903 11.7993C27.9158 12.7954 29.4171 14.137 30.6 15.7402L82.29 85.8202C83.5703 87.5609 84.1986 89.6959 84.0652 91.8526C83.9318 94.0093 83.0451 96.0506 81.56 97.6202C80.6968 98.532 79.6564 99.2579 78.5027 99.7534C77.349 100.249 76.1063 100.503 74.8507 100.502C73.5951 100.5 72.3531 100.241 71.2009 99.7425C70.0486 99.2436 69.0105 98.5146 68.15 97.6002Z" fill="url(#paint1_linear)"/>
<path d="M92.07 84.11L29.79 99.71C26.6332 100.493 23.3342 100.504 20.1724 99.7409C17.0106 98.9783 14.0792 97.4649 11.6263 95.329C9.17353 93.1931 7.27157 90.4975 6.08156 87.4706C4.89154 84.4437 4.44852 81.1745 4.79001 77.9401C5.33757 72.8558 7.7884 68.167 11.6503 64.8152C15.5123 61.4633 20.4993 59.6967 25.61 59.87L89.77 62.21C92.645 62.311 95.3687 63.5232 97.3681 65.5916C99.3675 67.66 100.487 70.4233 100.49 73.3001C100.497 75.7838 99.6712 78.1982 98.145 80.1577C96.6187 82.1171 94.4799 83.5087 92.07 84.11Z" fill="url(#paint2_linear)"/>
<path d="M22.5 22.5H82.5V82.5H22.5V22.5Z" fill="black"/>
<path d="M29.98 71.1602H52.48V74.9102H29.98V71.1602Z" fill="white"/>
<path d="M30 29.9102H35V38.8502H44.16V29.9102H49.16V52.5002H44.16V43.4302H35V52.5002H30V29.9102Z" fill="white"/>
<path d="M53.94 29.91H64.43C66.5839 29.769 68.7058 30.4883 70.33 31.91C70.8376 32.4098 71.2371 33.0085 71.5037 33.669C71.7704 34.3296 71.8984 35.0379 71.88 35.75V35.82C71.9056 36.8351 71.6357 37.8358 71.1031 38.7004C70.5705 39.565 69.7982 40.2562 68.88 40.69C71.5 41.69 73.11 43.21 73.11 46.24V46.31C73.11 50.44 69.75 52.5 64.65 52.5H53.94V29.91ZM66.94 36.59C66.94 35.11 65.78 34.27 63.68 34.27H58.78V39H63.36C65.56 39 66.94 38.29 66.94 36.62V36.59ZM64.52 43.18H58.78V48.18H64.68C66.88 48.18 68.2 47.41 68.2 45.73V45.67C68.2 44.11 67.07 43.18 64.52 43.18Z" fill="white"/>
<defs>
<linearGradient id="paint0_linear" x1="45.28" y1="33.4" x2="56.28" y2="60.68" gradientUnits="userSpaceOnUse">
<stop offset="0.15" stop-color="#07C3F2"/>
<stop offset="1" stop-color="#6B57FF"/>
</linearGradient>
<linearGradient id="paint1_linear" x1="38.58" y1="86.7802" x2="50.01" y2="28.2702" gradientUnits="userSpaceOnUse">
<stop offset="0.09" stop-color="#FCF84A"/>
<stop offset="0.46" stop-color="#6B57FF"/>
<stop offset="0.76" stop-color="#6B57FF"/>
<stop offset="0.83" stop-color="#5074FC"/>
<stop offset="0.99" stop-color="#0CBDF3"/>
<stop offset="1" stop-color="#07C3F2"/>
</linearGradient>
<linearGradient id="paint2_linear" x1="92.56" y1="71.98" x2="8.03001" y2="82.11" gradientUnits="userSpaceOnUse">
<stop stop-color="#FCF84A"/>
<stop offset="0.5" stop-color="#6B57FF"/>
<stop offset="1" stop-color="#07C3F2"/>
</linearGradient>
</defs>
</svg>
