<svg width="105" height="105" viewBox="0 0 105 105" fill="none" xmlns="http://www.w3.org/2000/svg">
<path d="M16 17H88V89H16V17Z" fill="black"/>
<path d="M22.2104 75.5H49.2104V80H22.2104V75.5Z" fill="white"/>
<path d="M21.9069 35.9581L24.0023 33.98C24.5723 34.6673 25.1088 35.0696 25.8464 35.0696C26.6511 35.0696 27.1709 34.5165 27.1709 33.4268V26H30.4065V33.4435C30.4065 34.9187 30.0377 35.9581 29.2498 36.7461C28.4783 37.5175 27.3722 37.9364 26.031 37.9364C23.9856 37.9364 22.7451 37.0814 21.9069 35.9581V35.9581Z" fill="white"/>
<path d="M31.1605 26H40.5989V28.7494H34.3793V30.5432H40.0121V33.1081H34.3793V34.969H40.6827V37.7352H31.1605V26Z" fill="white"/>
<path d="M44.8505 28.85H41.3468V26H51.6233V28.85H48.1028V37.7352H44.8505V28.85Z" fill="white"/>
<path d="M30.3728 46.0778C31.4123 45.6252 32.1831 44.8204 32.1831 43.4625V43.429C32.1915 43.0761 32.129 42.7252 31.9994 42.3968C31.8698 42.0685 31.6757 41.7695 31.4286 41.5175C30.7413 40.8469 29.7018 40.478 28.2265 40.478H22.2087V52.2132H28.2606C31.0601 52.2132 32.7031 50.9892 32.7031 48.9776V48.9441C32.7032 47.3515 31.7979 46.5468 30.3728 46.0778V46.0778ZM25.3771 43.0938H27.5062C28.4618 43.0938 28.9815 43.4458 28.9815 44.0996V44.1332C28.9815 44.8205 28.4115 45.1558 27.4224 45.1558H25.3771V43.0934V43.0938ZM29.4509 48.5255C29.4509 49.2128 28.8977 49.5984 27.8918 49.5984H25.3771V47.4355H27.8583C28.948 47.4355 29.4509 47.8546 29.4509 48.4917V48.5253V48.5255Z" fill="white"/>
<path d="M50.5395 40.3943H47.4049L43.0201 50.8027L41.1858 48.1227C42.6443 47.5023 43.5998 46.3124 43.5998 44.5016V44.468C43.5998 43.3113 43.2478 42.4227 42.5609 41.7354C41.7729 40.9475 40.5324 40.4781 38.7386 40.4781H33.1891V52.2132H36.4413V48.6595H37.8831L40.2469 52.2135H45.8286L46.6669 50.1012H51.21L52.0482 52.2135H55.535L50.5395 40.3943ZM40.347 44.7194C40.347 45.5744 39.6932 46.111 38.6035 46.111H36.4414V43.2777H38.5875C39.6605 43.2777 40.3478 43.7471 40.3478 44.686V44.7194H40.347ZM47.6228 47.5692L48.9473 44.2499L50.2549 47.5692H47.6228Z" fill="white"/>
<path d="M55.9208 40.478H59.173V52.2132H55.9208V40.478Z" fill="white"/>
<path d="M59.9775 40.478H63.0119L67.84 46.6809V40.478H71.0588V52.2132H68.2257L63.1964 45.7757V52.2132H59.9775V40.478Z" fill="white"/>
<path d="M71.2628 50.4698L73.0731 48.3073C74.2466 49.2293 75.5211 49.7155 76.8788 49.7155C77.7673 49.7155 78.2365 49.4137 78.2365 48.9107V48.8773C78.2365 48.3743 77.8509 48.1228 76.2411 47.7372C73.7431 47.1673 71.8151 46.4631 71.8151 44.0658V44.0323C71.8151 41.853 73.5419 40.2771 76.3583 40.2771C78.3537 40.2771 79.9123 40.8136 81.1864 41.8362L79.5612 44.1328C78.4883 43.3614 77.3148 42.9761 76.2753 42.9761C75.4874 42.9761 75.1018 43.2949 75.1018 43.7304V43.7635C75.1018 44.3 75.5042 44.535 77.1471 44.9035C79.8294 45.4898 81.5059 46.362 81.5059 48.5581V48.5917C81.5059 50.9889 79.6115 52.4139 76.7615 52.4139C74.6827 52.4144 72.7213 51.7607 71.2628 50.4698V50.4698Z" fill="white"/>
</svg>
