<svg width="105" height="105" viewBox="0 0 105 105" fill="none" xmlns="http://www.w3.org/2000/svg">
<path d="M57.49 22.38L54.29 12.7L20.88 5.5L4.5 24.03L22.5 33.24V22.38H57.49Z" fill="url(#paint0_linear)"/>
<path d="M22.5 28.6798L4.5 24.0298L13.65 78.9898L22.47 78.9198L22.5 28.6798Z" fill="url(#paint1_linear)"/>
<path d="M82.5 22.3802H51.19L63.77 11.2002L88.01 15.7002L100.5 46.7402L82.51 64.6102L82.5 22.3802Z" fill="url(#paint2_linear)"/>
<path d="M82.52 46.3301L82.5 82.3801H30.96L32.29 90.2201L64.65 101.5L100.5 80.0401L82.52 46.3301Z" fill="url(#paint3_linear)"/>
<path d="M22.5 22.5H82.5V82.5H22.5V22.5Z" fill="black"/>
<path d="M29.98 71.1602H52.48V74.9102H29.98V71.1602Z" fill="white"/>
<path d="M49.6 49.27L52.53 45.76C54.3705 47.4597 56.7656 48.4334 59.27 48.5C61.27 48.5 62.53 47.69 62.53 46.37V46.31C62.53 45.05 61.75 44.4 57.98 43.44C53.43 42.28 50.5 41.02 50.5 36.54V36.47C50.5 32.38 53.79 29.67 58.4 29.67C61.4432 29.6162 64.4088 30.6318 66.78 32.54L64.2 36.28C62.5141 34.9611 60.4667 34.1868 58.33 34.06C56.43 34.06 55.43 34.93 55.43 36.06V36.13C55.43 37.61 56.43 38.13 60.3 39.13C64.88 40.33 67.46 41.97 67.46 45.9V45.97C67.46 50.45 64.04 52.97 59.17 52.97C55.6449 52.983 52.2383 51.6979 49.6 49.36" fill="white"/>
<path d="M30 30H39.2C44.56 30 47.81 33.18 47.81 37.77V37.83C47.81 43.03 43.76 45.73 38.72 45.73H35V52.47H30V30ZM38.86 41.33C41.33 41.33 42.78 39.86 42.78 37.93V37.87C42.78 35.65 41.24 34.46 38.78 34.46H35V41.33H38.86Z" fill="white"/>
<defs>
<linearGradient id="paint0_linear" x1="25.8" y1="33.6" x2="33.95" y2="17.31" gradientUnits="userSpaceOnUse">
<stop stop-color="#AF1DF5"/>
<stop offset="0.21" stop-color="#BC20E4"/>
<stop offset="0.63" stop-color="#DD29B8"/>
<stop offset="1" stop-color="#FF318C"/>
</linearGradient>
<linearGradient id="paint1_linear" x1="1.56" y1="67.2298" x2="35.95" y2="21.7998" gradientUnits="userSpaceOnUse">
<stop offset="0.02" stop-color="#6B57FF"/>
<stop offset="0.42" stop-color="#B74AF7"/>
<stop offset="0.75" stop-color="#FF318C"/>
</linearGradient>
<linearGradient id="paint2_linear" x1="89.3" y1="65.7902" x2="65.46" y2="9.23019" gradientUnits="userSpaceOnUse">
<stop stop-color="#293896"/>
<stop offset="0.08" stop-color="#3B3AA2"/>
<stop offset="0.29" stop-color="#6740C0"/>
<stop offset="0.49" stop-color="#8A44D8"/>
<stop offset="0.68" stop-color="#A347E9"/>
<stop offset="0.86" stop-color="#B249F3"/>
<stop offset="1" stop-color="#B74AF7"/>
</linearGradient>
<linearGradient id="paint3_linear" x1="74.68" y1="93.5901" x2="58.6" y2="70.0301" gradientUnits="userSpaceOnUse">
<stop offset="0.02" stop-color="#6B57FF"/>
<stop offset="0.78" stop-color="#B74AF7"/>
</linearGradient>
</defs>
</svg>
