<?xml version="1.0" encoding="utf-8"?>
<!-- Generator: Adobe Illustrator 25.2.3, SVG Export Plug-In . SVG Version: 6.00 Build 0)  -->
<svg version="1.1" id="Layer_1" xmlns="http://www.w3.org/2000/svg" xmlns:xlink="http://www.w3.org/1999/xlink" x="0px" y="0px"
	 viewBox="0 0 105 105" style="enable-background:new 0 0 105 105;" xml:space="preserve">
<style type="text/css">
	.st0{fill:url(#SVGID_1_);}
	.st1{fill:url(#SVGID_2_);}
	.st2{fill:url(#SVGID_3_);}
	.st3{fill:url(#SVGID_4_);}
</style>
<linearGradient id="SVGID_1_" gradientUnits="userSpaceOnUse" x1="23.3347" y1="59.7735" x2="34.698" y2="82.4861" gradientTransform="matrix(1 0 0 -1 0 106)">
	<stop  offset="0" style="stop-color:#AF1DF5"/>
	<stop  offset="0.21" style="stop-color:#BC20E4"/>
	<stop  offset="0.63" style="stop-color:#DD29B8"/>
	<stop  offset="1" style="stop-color:#FF318C"/>
</linearGradient>
<path class="st0" d="M57.5,22.4l-3.2-9.7L20.9,5.5L4.5,24l32.1,30.6l24.7-24.4L57.5,22.4z"/>
<linearGradient id="SVGID_2_" gradientUnits="userSpaceOnUse" x1="6.0822" y1="35.431" x2="41.5808" y2="82.3255" gradientTransform="matrix(1 0 0 -1 0 106)">
	<stop  offset="2.000000e-02" style="stop-color:#6B57FF"/>
	<stop  offset="0.42" style="stop-color:#B74AF7"/>
	<stop  offset="0.75" style="stop-color:#FF318C"/>
</linearGradient>
<path class="st1" d="M32.2,34.2L4.5,24l9.1,55l19.4,4.5L32.2,34.2z"/>
<linearGradient id="SVGID_3_" gradientUnits="userSpaceOnUse" x1="80.6464" y1="36.5623" x2="56.8064" y2="93.1223" gradientTransform="matrix(1 0 0 -1 0 106)">
	<stop  offset="0" style="stop-color:#293896"/>
	<stop  offset="8.000000e-02" style="stop-color:#3B3AA2"/>
	<stop  offset="0.29" style="stop-color:#6740C0"/>
	<stop  offset="0.49" style="stop-color:#8A44D8"/>
	<stop  offset="0.68" style="stop-color:#A347E9"/>
	<stop  offset="0.86" style="stop-color:#B249F3"/>
	<stop  offset="1" style="stop-color:#B74AF7"/>
</linearGradient>
<path class="st2" d="M40.1,44.5l11.1-22.2l12.6-11.2L88,15.7l12.5,31l-18,17.9L40.1,44.5z"/>
<linearGradient id="SVGID_4_" gradientUnits="userSpaceOnUse" x1="73.1345" y1="14.6784" x2="43.9323" y2="57.4648" gradientTransform="matrix(1 0 0 -1 0 106)">
	<stop  offset="2.000000e-02" style="stop-color:#6B57FF"/>
	<stop  offset="0.78" style="stop-color:#B74AF7"/>
</linearGradient>
<path class="st3" d="M82.5,46.3l-50.7-2.9L31,82.4l1.3,7.8l32.4,11.3L100.5,80L82.5,46.3z"/>
</svg>
