<svg width="105" height="105" viewBox="0 0 105 105" fill="none" xmlns="http://www.w3.org/2000/svg">
<path d="M11.25 11.75H93.75V94.25H11.25V11.75Z" fill="url(#paint0_linear)"/>
<path d="M22.5 23.1101H82.5V83.1101H22.5V23.1101Z" fill="black"/>
<path d="M29.98 71.78H52.48V75.53H29.98V71.78Z" fill="white"/>
<path d="M30 30.6201H39.18C44.54 30.6201 47.78 33.8001 47.78 38.3901V38.4601C47.78 43.6601 43.78 46.3501 38.7 46.3501H34.92V53.0901H30V30.6201ZM38.84 42.0001C41.31 42.0001 42.75 40.5301 42.75 38.6001V38.5401C42.75 36.3201 41.21 35.1401 38.75 35.1401H34.92V42.0001H38.84Z" fill="white"/>
<path d="M51 30.6902H59.8C66.9 30.6902 71.8 35.5602 71.8 41.9102V42.0002C71.8 48.3502 66.9 53.2802 59.8 53.2802H51V30.6902ZM56 35.1702V48.7802H59.83C60.732 48.828 61.634 48.6851 62.4771 48.361C63.3203 48.0369 64.0857 47.5388 64.7234 46.8992C65.3612 46.2595 65.8571 45.4926 66.1787 44.6485C66.5003 43.8044 66.6404 42.9021 66.59 42.0002C66.6359 41.0938 66.4912 40.1878 66.1652 39.3408C65.8392 38.4937 65.3392 37.7245 64.6974 37.0828C64.0557 36.441 63.2864 35.941 62.4394 35.615C61.5924 35.289 60.6864 35.1443 59.78 35.1902L56 35.1702Z" fill="white"/>
<defs>
<linearGradient id="paint0_linear" x1="102.94" y1="103.44" x2="-13.59" y2="-13.1" gradientUnits="userSpaceOnUse">
<stop offset="0.35" stop-color="#07C3F2"/>
<stop offset="0.82" stop-color="#21D789"/>
</linearGradient>
</defs>
</svg>
