<svg width="105" height="105" viewBox="0 0 105 105" fill="none" xmlns="http://www.w3.org/2000/svg">
<path d="M74.71 25.9199L40.68 68.9199L33 100.36H84.66L100.5 35.9899L74.71 25.9199Z" fill="url(#paint0_linear)"/>
<path d="M71.68 4.35986H20.43L4.5 68.9199H80.76L71.68 4.35986Z" fill="url(#paint1_linear)"/>
<path d="M74.35 22.6199L71.68 4.35986L65.92 22.6199H74.35Z" fill="url(#paint2_linear)"/>
<path d="M22.5 22.5H82.5V82.5H22.5V22.5Z" fill="black"/>
<path d="M29.98 71.1602H52.48V74.9102H29.98V71.1602Z" fill="white"/>
<path d="M54.54 47.6799H52.09V43.5599H55.25L56.05 38.7799H53.22V34.6499H56.76L57.57 29.9399H61.83L61 34.6499H65.7L66.51 29.9499H70.76L69.96 34.6499H72.41V38.7799H69.25L68.44 43.5599H71.28V47.6799H67.73L66.89 52.5199H62.64L63.47 47.6799H58.8L58 52.5199H53.7L54.54 47.6799ZM64.18 43.5599L65 38.7799H60.31L59.51 43.5599H64.18Z" fill="white"/>
<path d="M30 29.94H40.34C41.5342 29.8618 42.732 30.0243 43.8623 30.4176C44.9925 30.811 46.0323 31.4273 46.92 32.23C47.574 32.9148 48.0822 33.7252 48.414 34.6121C48.7457 35.4991 48.894 36.4441 48.85 37.39V37.45C48.9278 39.0494 48.4548 40.6271 47.51 41.92C46.6043 43.0798 45.3867 43.9575 44 44.45L49.51 52.51H43.71L39.04 45.58H35V52.51H30V29.94ZM40 40.94C41.0307 40.9916 42.0436 40.6563 42.84 40C43.1654 39.7093 43.4234 39.3511 43.5961 38.9504C43.7688 38.5497 43.8521 38.1161 43.84 37.68V37.62C43.8772 37.1662 43.8059 36.7101 43.6321 36.2893C43.4582 35.8685 43.1867 35.4951 42.84 35.2C42.0018 34.6145 40.9906 34.3291 39.97 34.39H35V40.9L40 40.94Z" fill="white"/>
<defs>
<linearGradient id="paint0_linear" x1="51.74" y1="100.56" x2="93.14" y2="40.2299" gradientUnits="userSpaceOnUse">
<stop offset="0.02" stop-color="#FF45ED"/>
<stop offset="0.4" stop-color="#DD1265"/>
<stop offset="1" stop-color="#FDB60D"/>
</linearGradient>
<linearGradient id="paint1_linear" x1="7.01" y1="77.6299" x2="71.46" y2="17.0099" gradientUnits="userSpaceOnUse">
<stop offset="0.02" stop-color="#FF45ED"/>
<stop offset="0.66" stop-color="#DD1265"/>
</linearGradient>
<linearGradient id="paint2_linear" x1="69.78" y1="2.08986" x2="70.44" y2="40.1799" gradientUnits="userSpaceOnUse">
<stop stop-color="#DD1265"/>
<stop offset="0.06" stop-color="#DF1961"/>
<stop offset="0.7" stop-color="#F46330"/>
<stop offset="1" stop-color="#FC801D"/>
</linearGradient>
</defs>
</svg>
