<?xml version="1.0" encoding="utf-8"?>
<!-- Generator: Adobe Illustrator 25.2.3, SVG Export Plug-In . SVG Version: 6.00 Build 0)  -->
<svg version="1.1" id="Layer_1" xmlns="http://www.w3.org/2000/svg" xmlns:xlink="http://www.w3.org/1999/xlink" x="0px" y="0px"
	 viewBox="0 0 105 105" style="enable-background:new 0 0 105 105;" xml:space="preserve">
<style type="text/css">
	.st0{fill:url(#SVGID_1_);}
	.st1{fill:url(#SVGID_2_);}
	.st2{fill:url(#SVGID_3_);}
	.st3{fill:url(#SVGID_4_);}
</style>
<linearGradient id="SVGID_1_" gradientUnits="userSpaceOnUse" x1="41.729" y1="43.0296" x2="33.519" y2="67.3296" gradientTransform="matrix(1 0 0 -1 0 106)">
	<stop  offset="0" style="stop-color:#07C3F2"/>
	<stop  offset="1" style="stop-color:#6B57FF"/>
</linearGradient>
<path class="st0" d="M28.9,87.5L8.8,34.6c-1.3-3.3-1.7-6.9-1.3-10.4c0.4-3.5,1.6-6.9,3.6-9.8c2-2.9,4.6-5.4,7.7-7.1
	c3.1-1.7,6.6-2.7,10.1-2.7c4.8-0.1,9.4,1.3,13.3,4c3.9,2.7,6.8,6.7,8.3,11.2l17.6,53.8C71.7,84.5,32.9,98,28.9,87.5z"/>
<linearGradient id="SVGID_2_" gradientUnits="userSpaceOnUse" x1="38.9312" y1="34.7878" x2="68.3512" y2="49.5578" gradientTransform="matrix(1 0 0 -1 0 106)">
	<stop  offset="0" style="stop-color:#07C3F2"/>
	<stop  offset="1" style="stop-color:#009AE5"/>
</linearGradient>
<path class="st1" d="M89.3,70.7L40,97.4c-2.9,1.6-6.1,2.5-9.3,2.8c-3.3,0.3-6.6-0.1-9.7-1.2c-3.1-1.1-6-2.7-8.4-4.9
	c-2.4-2.2-4.4-4.9-5.7-7.9c-1.3-2.9-2-6.1-2.1-9.3c-0.1-3.2,0.5-6.4,1.7-9.4c1.2-3,3-5.7,5.3-8c2.3-2.3,5-4.1,8-5.3l52-21
	c4.3-1.7,9.1-2,13.5-0.7c4.5,1.3,8.3,4,11,7.8c1.7,2.4,2.9,5.1,3.5,8c0.6,2.9,0.5,5.9-0.1,8.8C99,60,97.8,62.7,96,65
	C94.2,67.4,91.9,69.3,89.3,70.7z"/>
<linearGradient id="SVGID_3_" gradientUnits="userSpaceOnUse" x1="76.2287" y1="49.2383" x2="27.5487" y2="85.9883" gradientTransform="matrix(1 0 0 -1 0 106)">
	<stop  offset="0" style="stop-color:#009AE5"/>
	<stop  offset="1" style="stop-color:#6B57FF"/>
</linearGradient>
<path class="st2" d="M70.7,71.2L19.8,46.6c-3.2-1.5-5.9-3.8-8.1-6.7c-2.1-2.8-3.5-6.1-4.1-9.6C7,26.8,7.2,23.3,8.3,19.9
	s2.9-6.4,5.4-8.9c3.4-3.4,7.7-5.6,12.5-6.2c4.7-0.7,9.5,0.2,13.7,2.5l49.7,27c4.8,2.6,8.4,7,10,12.3c1.6,5.2,1,10.9-1.5,15.7
	c-2.5,4.8-6.8,8.4-11.9,10C81.1,73.9,75.5,73.5,70.7,71.2z"/>
<linearGradient id="SVGID_4_" gradientUnits="userSpaceOnUse" x1="25.7833" y1="23.9729" x2="58.9433" y2="91.5029" gradientTransform="matrix(1 0 0 -1 0 106)">
	<stop  offset="0.3" style="stop-color:#07C3F2"/>
	<stop  offset="0.6" style="stop-color:#3BEA62"/>
</linearGradient>
<path class="st3" d="M18.6,98.3c-3.4-1.5-6.3-3.8-8.7-6.7c-2.3-2.9-4-6.2-4.8-9.8c-0.8-3.6-0.8-7.3,0-10.9c0.8-3.6,2.5-7,4.9-9.8
	L53.1,9c1.7-2,4-3.5,6.5-4c2.6-0.6,5.3-0.3,7.7,0.7c2.8,1.2,4.9,3.5,6.1,6.3c1.2,2.8,1.3,5.9,0.3,8.7L51.2,84.4
	c-1.1,3.2-2.9,6-5.1,8.5c-2.3,2.4-5,4.4-8.1,5.7c-3.1,1.3-6.4,2-9.7,1.9C24.9,100.5,21.6,99.7,18.6,98.3z"/>
</svg>
