<svg width="105" height="105" viewBox="0 0 105 105" fill="none" xmlns="http://www.w3.org/2000/svg">
<path d="M85.47 37.8899L21.16 44.7899C17.3362 45.1979 13.4996 44.1442 10.4205 41.8404C7.34143 39.5367 5.24782 36.1534 4.56 32.3699C4.19838 30.3718 4.24026 28.3215 4.68317 26.3397C5.12608 24.358 5.96107 22.485 7.13896 20.8309C8.31685 19.1768 9.81382 17.7752 11.5417 16.7085C13.2696 15.6418 15.1935 14.9317 17.2 14.6199L81.12 4.68992C83.5929 4.30547 86.1205 4.48036 88.5169 5.20173C90.9133 5.9231 93.1174 7.1726 94.9672 8.85827C96.8169 10.544 98.2652 12.6229 99.2054 14.9422C100.146 17.2615 100.554 19.762 100.4 22.2599C100.162 26.2101 98.5314 29.9481 95.798 32.8097C93.0645 35.6713 89.4052 37.4713 85.47 37.8899Z" fill="url(#paint0_linear)"/>
<path d="M61.7 93.84L8.77002 40.36C7.26541 38.8392 6.09786 37.0187 5.34331 35.0168C4.58875 33.015 4.26412 30.8767 4.39052 28.7411C4.51692 26.6056 5.09152 24.5205 6.07694 22.6217C7.06236 20.7228 8.43652 19.0527 10.11 17.72C12.6463 15.7042 15.7596 14.5503 18.997 14.4262C22.2344 14.3021 25.4269 15.2143 28.11 17.03L90.42 59.27C93.3104 61.2318 95.7065 63.8372 97.4199 66.8814C99.1333 69.9257 100.117 73.3258 100.295 76.8146C100.472 80.3033 99.8378 83.7857 98.442 86.988C97.0461 90.1903 94.9266 93.0252 92.25 95.27C87.9069 98.9075 82.355 100.78 76.6961 100.515C71.0371 100.25 65.6844 97.8673 61.7 93.84Z" fill="url(#paint1_linear)"/>
<path d="M73.66 7.77957L11.82 53.9996C10.5142 54.9737 9.42406 56.2075 8.61814 57.6233C7.81222 59.0391 7.30793 60.6064 7.137 62.2265C6.96606 63.8466 7.13217 65.4846 7.62488 67.0374C8.11759 68.5903 8.92624 70.0244 9.99999 71.2496C11.7889 73.2842 14.2235 74.6413 16.8949 75.0929C19.5662 75.5445 22.3116 75.0631 24.67 73.7296L91.89 35.7296C94.0602 34.5047 95.9293 32.8104 97.3608 30.7707C98.7923 28.7309 99.7501 26.3971 100.164 23.9397C100.578 21.4824 100.438 18.9636 99.7539 16.5673C99.0698 14.1711 97.859 11.9579 96.21 10.0896C93.4271 6.94469 89.5633 4.96136 85.3858 4.53343C81.2083 4.10549 77.0227 5.26423 73.66 7.77957Z" fill="url(#paint2_linear)"/>
<path d="M68.5 98.5697L14 74.0897C12.3838 73.3697 10.9514 72.2934 9.81008 70.9414C8.66875 69.5895 7.84805 67.9968 7.40943 66.2827C6.97081 64.5686 6.92563 62.7775 7.27728 61.0435C7.62892 59.3095 8.36828 57.6775 9.43999 56.2697C10.6061 54.7477 12.1272 53.5345 13.8705 52.7362C15.6137 51.9378 17.5259 51.5785 19.44 51.6897L79.11 55.3597C82.6622 55.5765 86.1131 56.6288 89.1819 58.431C92.2507 60.2332 94.8507 62.7343 96.7705 65.7309C98.6903 68.7275 99.8756 72.135 100.23 75.6761C100.584 79.2173 100.098 82.7921 98.81 86.1097C97.6988 88.9654 96.0191 91.5657 93.873 93.7529C91.7268 95.9401 89.1588 97.6686 86.3246 98.8337C83.4904 99.9988 80.4492 100.576 77.3852 100.531C74.3212 100.485 71.2984 99.8182 68.5 98.5697Z" fill="url(#paint3_linear)"/>
<path d="M22.5 22.5H82.5V82.5H22.5V22.5Z" fill="black"/>
<path d="M29.98 71.1602H52.48V74.9102H29.98V71.1602Z" fill="white"/>
<path d="M30 42.8302V29.9102H35V42.7002C35 46.3802 36.84 48.2802 39.88 48.2802C42.92 48.2802 44.75 46.4402 44.75 42.8602V29.9102H49.75V42.6602C49.75 49.5102 45.91 52.8702 39.84 52.8702C33.77 52.8702 30 49.4802 30 42.8302Z" fill="white"/>
<path d="M54.26 29.9102H63.5C68.89 29.9102 72.15 33.1102 72.15 37.7302V37.7902C72.15 43.0202 68.08 45.7302 63.01 45.7302H59.23V52.5102H54.23L54.26 29.9102ZM63.17 41.3102C65.66 41.3102 67.11 39.8202 67.11 37.8902V37.8202C67.11 35.6002 65.56 34.4002 63.11 34.4002H59.23V41.3102H63.17Z" fill="white"/>
<defs>
<linearGradient id="paint0_linear" x1="96.93" y1="19.4799" x2="29.22" y2="28.4999" gradientUnits="userSpaceOnUse">
<stop stop-color="#FC801D"/>
<stop offset="1" stop-color="#6B57FF"/>
</linearGradient>
<linearGradient id="paint1_linear" x1="51.93" y1="55.98" x2="57.71" y2="31.54" gradientUnits="userSpaceOnUse">
<stop stop-color="#07C3F2"/>
<stop offset="1" stop-color="#6B57FF"/>
</linearGradient>
<linearGradient id="paint2_linear" x1="85.48" y1="20.0296" x2="15.24" y2="64.8396" gradientUnits="userSpaceOnUse">
<stop stop-color="#FC801D"/>
<stop offset="0.92" stop-color="#6B57FF"/>
</linearGradient>
<linearGradient id="paint3_linear" x1="8763.16" y1="4143.49" x2="3405.59" y2="447.046" gradientUnits="userSpaceOnUse">
<stop stop-color="#07C3F2"/>
<stop offset="1" stop-color="#6B57FF"/>
</linearGradient>
</defs>
</svg>
