<?xml version="1.0" encoding="utf-8"?>
<!-- Generator: Adobe Illustrator 25.2.3, SVG Export Plug-In . SVG Version: 6.00 Build 0)  -->
<svg version="1.1" id="Layer_1" xmlns="http://www.w3.org/2000/svg" xmlns:xlink="http://www.w3.org/1999/xlink" x="0px" y="0px"
	 viewBox="0 0 105 105" style="enable-background:new 0 0 105 105;" xml:space="preserve">
<style type="text/css">
	.st0{fill:url(#SVGID_1_);}
	.st1{fill:url(#SVGID_2_);}
	.st2{fill:url(#SVGID_3_);}
	.st3{fill:url(#SVGID_4_);}
</style>
<linearGradient id="SVGID_1_" gradientUnits="userSpaceOnUse" x1="96.9293" y1="86.5254" x2="29.2193" y2="77.5054" gradientTransform="matrix(1 0 0 -1 0 106)">
	<stop  offset="0" style="stop-color:#FC801D"/>
	<stop  offset="1" style="stop-color:#6B57FF"/>
</linearGradient>
<path class="st0" d="M85.5,37.9l-64.3,6.9c-3.8,0.4-7.7-0.6-10.7-2.9c-3.1-2.3-5.2-5.7-5.9-9.5c-0.4-2-0.3-4,0.1-6
	c0.4-2,1.3-3.9,2.5-5.5s2.7-3.1,4.4-4.1c1.7-1.1,3.7-1.8,5.7-2.1l63.9-9.9c2.5-0.4,5-0.2,7.4,0.5s4.6,2,6.5,3.7
	c1.8,1.7,3.3,3.8,4.2,6.1c0.9,2.3,1.3,4.8,1.2,7.3c-0.2,4-1.9,7.7-4.6,10.5C93.1,35.7,89.4,37.5,85.5,37.9z"/>
<linearGradient id="SVGID_2_" gradientUnits="userSpaceOnUse" x1="51.93" y1="50.02" x2="57.71" y2="74.46" gradientTransform="matrix(1 0 0 -1 0 106)">
	<stop  offset="0" style="stop-color:#07C3F2"/>
	<stop  offset="1" style="stop-color:#6B57FF"/>
</linearGradient>
<path class="st1" d="M61.7,93.8L8.8,40.4C7.3,38.8,6.1,37,5.3,35c-0.8-2-1.1-4.1-1-6.3c0.1-2.1,0.7-4.2,1.7-6.1c1-1.9,2.4-3.6,4-4.9
	c2.5-2,5.6-3.2,8.9-3.3s6.4,0.8,9.1,2.6l62.3,42.2c2.9,2,5.3,4.6,7,7.6c1.7,3,2.7,6.4,2.9,9.9c0.2,3.5-0.5,7-1.9,10.2
	c-1.4,3.2-3.5,6-6.2,8.3c-4.3,3.6-9.9,5.5-15.6,5.2C71,100.2,65.7,97.9,61.7,93.8z"/>
<linearGradient id="SVGID_3_" gradientUnits="userSpaceOnUse" x1="85.4738" y1="85.9801" x2="15.2338" y2="41.1701" gradientTransform="matrix(1 0 0 -1 0 106)">
	<stop  offset="0" style="stop-color:#FC801D"/>
	<stop  offset="0.92" style="stop-color:#6B57FF"/>
</linearGradient>
<path class="st2" d="M73.7,7.8L11.8,54c-1.3,1-2.4,2.2-3.2,3.6c-0.8,1.4-1.3,3-1.5,4.6c-0.2,1.6,0,3.3,0.5,4.8
	c0.5,1.6,1.3,3,2.4,4.2c1.8,2,4.2,3.4,6.9,3.8c2.7,0.5,5.4,0,7.8-1.4l67.2-38c2.2-1.2,4-2.9,5.5-5c1.4-2,2.4-4.4,2.8-6.8
	c0.4-2.5,0.3-5-0.4-7.4c-0.7-2.4-1.9-4.6-3.5-6.5C93.4,6.9,89.6,5,85.4,4.5C81.2,4.1,77,5.3,73.7,7.8z"/>
<linearGradient id="SVGID_4_" gradientUnits="userSpaceOnUse" x1="7859.4282" y1="-5347.3457" x2="2501.8577" y2="-1650.9016" gradientTransform="matrix(1 0 0 -1 0 106)">
	<stop  offset="0" style="stop-color:#07C3F2"/>
	<stop  offset="1" style="stop-color:#6B57FF"/>
</linearGradient>
<path class="st3" d="M68.5,98.6L14,74.1c-1.6-0.7-3-1.8-4.2-3.1c-1.1-1.4-2-2.9-2.4-4.7C7,64.6,6.9,62.8,7.3,61
	c0.4-1.7,1.1-3.4,2.2-4.8c1.2-1.5,2.7-2.7,4.4-3.5c1.7-0.8,3.7-1.2,5.6-1l59.7,3.7c3.6,0.2,7,1.3,10.1,3.1s5.7,4.3,7.6,7.3
	c1.9,3,3.1,6.4,3.5,9.9c0.4,3.5-0.1,7.1-1.4,10.4c-1.1,2.9-2.8,5.5-4.9,7.6c-2.1,2.2-4.7,3.9-7.5,5.1s-5.9,1.7-8.9,1.7
	C74.3,100.5,71.3,99.8,68.5,98.6z"/>
</svg>
