<?xml version="1.0" encoding="utf-8"?>
<!-- Generator: Adobe Illustrator 25.2.3, SVG Export Plug-In . SVG Version: 6.00 Build 0)  -->
<svg version="1.1" id="Layer_1" xmlns="http://www.w3.org/2000/svg" xmlns:xlink="http://www.w3.org/1999/xlink" x="0px" y="0px"
	 viewBox="0 0 105 105" style="enable-background:new 0 0 105 105;" xml:space="preserve">
<style type="text/css">
	.st0{fill:url(#SVGID_1_);}
	.st1{fill:url(#SVGID_2_);}
	.st2{fill:url(#SVGID_3_);}
</style>
<linearGradient id="SVGID_1_" gradientUnits="userSpaceOnUse" x1="82.9503" y1="36.8076" x2="25.7004" y2="26.0176" gradientTransform="matrix(1 0 0 -1 0 106)">
	<stop  offset="0" style="stop-color:#07C3F2"/>
	<stop  offset="1" style="stop-color:#6B57FF"/>
</linearGradient>
<path class="st0" d="M29,100.3l62.3-10.7c2.3-0.4,4.4-1.5,6-3.1c1.6-1.6,2.8-3.7,3.2-5.9c0.3-1.5,0.3-3-0.1-4.5
	c-0.3-1.5-0.9-2.9-1.8-4.2c-0.9-1.2-2-2.3-3.3-3.1c-1.3-0.8-2.8-1.3-4.3-1.5l-62.6-8.8c-2.8-0.4-5.6-0.2-8.4,0.5
	c-2.7,0.7-5.3,2-7.5,3.7c-2.2,1.7-4.1,3.9-5.5,6.4c-1.4,2.5-2.3,5.2-2.6,8c-0.4,3.3,0,6.6,1.1,9.6c1.1,3.1,3,5.9,5.3,8.1
	c2.4,2.3,5.3,3.9,8.4,4.9C22.5,100.7,25.8,100.9,29,100.3z"/>
<linearGradient id="SVGID_2_" gradientUnits="userSpaceOnUse" x1="2807.1741" y1="2779.1396" x2="-2967.2368" y2="-2935.0396" gradientTransform="matrix(1 0 0 -1 0 106)">
	<stop  offset="0" style="stop-color:#07C3F2"/>
	<stop  offset="1" style="stop-color:#6B57FF"/>
</linearGradient>
<path class="st1" d="M70.8,9.1L11.2,64c-2.2,2.1-4,4.6-5.2,7.4c-1.2,2.8-1.7,5.9-1.6,8.9c0.1,3,0.9,6,2.3,8.8c1.4,2.7,3.3,5.1,5.7,7
	c4.2,3.3,9.4,4.9,14.7,4.5c5.3-0.4,10.2-2.8,13.8-6.7l55-59.5c1.6-1.8,2.9-3.9,3.7-6.2c0.8-2.3,1.1-4.7,1-7.1
	c-0.2-2.4-0.8-4.8-1.9-6.9c-1.1-2.2-2.6-4.1-4.5-5.6C91,5.7,86.7,4.3,82.4,4.4C78.1,4.5,74,6.1,70.8,9.1z"/>
<linearGradient id="SVGID_3_" gradientUnits="userSpaceOnUse" x1="88.6536" y1="22.913" x2="24.4735" y2="81.923" gradientTransform="matrix(1 0 0 -1 0 106)">
	<stop  offset="0.15" style="stop-color:#07C3F2"/>
	<stop  offset="0.53" style="stop-color:#6B57FF"/>
	<stop  offset="1" style="stop-color:#FF318C"/>
</linearGradient>
<path class="st2" d="M82.7,87.6L12.1,36.8c-2.2-1.6-4-3.6-5.2-5.9c-1.3-2.3-2-4.9-2.2-7.6C4.5,20.6,5,17.9,6,15.5
	C7,13,8.6,10.8,10.6,9c3.4-3,7.8-4.7,12.4-4.6c4.6,0.1,8.9,1.9,12.1,5.1l62.2,60.8c1.1,1.1,2,2.3,2.5,3.7c0.6,1.4,0.9,2.9,0.9,4.4
	c0,1.5-0.3,3-0.9,4.4c-0.6,1.4-1.5,2.7-2.6,3.7c-1.9,1.8-4.4,2.9-7,3.1C87.4,89.9,84.8,89.1,82.7,87.6z"/>
</svg>
