<svg width="105" height="105" viewBox="0 0 105 105" fill="none" xmlns="http://www.w3.org/2000/svg">
<path d="M29 100.33L91.28 89.6704C93.5464 89.2855 95.6411 88.2172 97.2836 86.6088C98.926 85.0003 100.038 82.9283 100.47 80.6704C100.76 79.1703 100.743 77.6268 100.42 76.1334C100.096 74.64 99.4727 73.2279 98.5873 71.9826C97.7019 70.7372 96.5729 69.6845 95.2688 68.8883C93.9646 68.0921 92.5123 67.5689 91 67.3504L28.38 58.5605C25.583 58.1671 22.7356 58.3383 20.0059 59.0639C17.2762 59.7894 14.7196 61.0546 12.4871 62.7847C10.2545 64.5148 8.39127 66.6748 7.00743 69.137C5.62359 71.5993 4.7472 74.3138 4.43001 77.1205C4.05994 80.3786 4.45326 83.6782 5.57882 86.758C6.70438 89.8379 8.53131 92.6135 10.915 94.8653C13.2987 97.1171 16.1738 98.7831 19.3127 99.7317C22.4516 100.68 25.7682 100.885 29 100.33Z" fill="url(#paint0_linear)"/>
<path d="M70.78 9.0803L11.22 64.0003C8.97642 66.0693 7.2084 68.6005 6.03791 71.4191C4.86741 74.2377 4.3223 77.2766 4.44018 80.3263C4.55807 83.376 5.33613 86.3638 6.7207 89.0837C8.10528 91.8035 10.0634 94.1906 12.46 96.0803C16.6299 99.3609 21.8828 100.95 27.1719 100.531C32.4611 100.112 37.3983 97.7163 41 93.8203L96 34.3003C97.6388 32.5207 98.8987 30.4266 99.7033 28.1451C100.508 25.8637 100.84 23.4425 100.68 21.0286C100.52 18.6147 99.8714 16.2585 98.7729 14.1031C97.6744 11.9477 96.1492 10.0381 94.29 8.4903C90.9659 5.72128 86.7489 4.2545 82.424 4.36304C78.0991 4.47158 73.961 6.14803 70.78 9.0803Z" fill="url(#paint1_linear)"/>
<path d="M82.68 87.59L12.09 36.84C9.92025 35.2772 8.12794 33.2485 6.84462 30.9026C5.5613 28.5568 4.81954 25.9533 4.67376 23.2834C4.52799 20.6134 4.98191 17.9447 6.0022 15.4731C7.0225 13.0014 8.58328 10.7896 10.57 8.99996C13.9529 5.95352 18.3695 4.3105 22.921 4.40525C27.4724 4.49999 31.8168 6.32539 35.07 9.50996L97.23 70.27C98.318 71.3342 99.1807 72.6066 99.7666 74.0113C100.352 75.416 100.65 76.9242 100.64 78.4462C100.631 79.9681 100.315 81.4726 99.7123 82.87C99.1092 84.2674 98.231 85.5291 97.13 86.58C95.2164 88.4055 92.7253 89.5054 90.0871 89.6898C87.4488 89.8742 84.829 89.1315 82.68 87.59Z" fill="url(#paint2_linear)"/>
<path d="M22.5 22.5H82.5V82.5H22.5V22.5Z" fill="black"/>
<path d="M29.98 71.1602H52.48V74.9102H29.98V71.1602Z" fill="white"/>
<path d="M36.48 43.5802L27.81 29.9102H33.62L39 38.9702L44.48 29.9102H50.12L41.45 43.4902V52.4802H36.48V43.5802Z" fill="white"/>
<path d="M60.05 34.4902H53.19V29.9102H71.88V34.4902H65.02V52.4802H60.05V34.4902Z" fill="white"/>
<defs>
<linearGradient id="paint0_linear" x1="82.95" y1="69.1905" x2="25.7" y2="79.9805" gradientUnits="userSpaceOnUse">
<stop stop-color="#07C3F2"/>
<stop offset="1" stop-color="#6B57FF"/>
</linearGradient>
<linearGradient id="paint1_linear" x1="7803.35" y1="2375.7" x2="2028.94" y2="8089.88" gradientUnits="userSpaceOnUse">
<stop stop-color="#07C3F2"/>
<stop offset="1" stop-color="#6B57FF"/>
</linearGradient>
<linearGradient id="paint2_linear" x1="88.66" y1="83.08" x2="24.48" y2="24.07" gradientUnits="userSpaceOnUse">
<stop offset="0.15" stop-color="#07C3F2"/>
<stop offset="0.53" stop-color="#6B57FF"/>
<stop offset="1" stop-color="#FF318C"/>
</linearGradient>
</defs>
</svg>
