<?xml version="1.0" encoding="UTF-8"?>
<svg width="36px" height="36px" viewBox="0 0 36 36" version="1.1" xmlns="http://www.w3.org/2000/svg" xmlns:xlink="http://www.w3.org/1999/xlink">
    <title>Untitled</title>
    <g id="Page-1" stroke="none" stroke-width="1" fill="none" fill-rule="evenodd">
        <g id="chromatic" transform="translate(1.000000, 9.500000)" stroke="#000000">
            <path d="M17,0.5 C17.5113275,0.5 18.0126956,0.542641412 18.5007422,0.624562203 C14.2435593,1.33840721 11,5.04041667 11,9.5 C11,13.9592352 14.243053,17.6610149 18.4992578,18.3754378 C18.012013,18.4574166 17.5109794,18.5 17,18.5 C12.0294373,18.5 8,14.4705627 8,9.5 C8,4.52943725 12.0294373,0.5 17,0.5 Z" id="Combined-Shape"></path>
            <path d="M8,1.5 C8.6907281,1.5 9.36101044,1.58753869 10.0003581,1.75212715 C6.54986283,2.63973081 4,5.77208922 4,9.5 C4,13.2275499 6.54936918,16.3596627 9.9996419,17.2478729 C9.36031003,17.4125528 8.69036721,17.5 8,17.5 C3.581722,17.5 0,13.918278 0,9.5 C0,5.081722 3.581722,1.5 8,1.5 Z" id="Combined-Shape-Copy"></path>
            <circle id="Oval" cx="24" cy="9.5" r="9.5"></circle>
        </g>
    </g>
</svg>