<svg width="30" height="30" viewBox="0 0 30 30" fill="none" xmlns="http://www.w3.org/2000/svg">
<path d="M1 8L5.5193 5.41754C7.05647 4.53916 8.94353 4.53916 10.4807 5.41754L12.5193 6.58246C14.0565 7.46084 15.9435 7.46084 17.4807 6.58246L19.5193 5.41754C21.0565 4.53916 22.9435 4.53916 24.4807 5.41754L29 8" stroke="black" stroke-linecap="round" stroke-linejoin="round"/>
<path d="M1 14L5.09381 11.0759C6.8323 9.83407 9.1677 9.83407 10.9062 11.0759L12.0938 11.9241C13.8323 13.1659 16.1677 13.1659 17.9062 11.9241L19.0938 11.0759C20.8323 9.83407 23.1677 9.83407 24.9062 11.0759L29 14" stroke="black" stroke-linecap="round" stroke-linejoin="round"/>
<path d="M1 20L5.09381 17.0759C6.8323 15.8341 9.1677 15.8341 10.9062 17.0759L12.0938 17.9241C13.8323 19.1659 16.1677 19.1659 17.9062 17.9241L19.0938 17.0759C20.8323 15.8341 23.1677 15.8341 24.9062 17.0759L29 20" stroke="black" stroke-linecap="round" stroke-linejoin="round"/>
<path d="M1 25L5.5193 22.4175C7.05647 21.5392 8.94353 21.5392 10.4807 22.4175L12.5193 23.5825C14.0565 24.4608 15.9435 24.4608 17.4807 23.5825L19.5193 22.4175C21.0565 21.5392 22.9435 21.5392 24.4807 22.4175L29 25" stroke="black" stroke-linecap="round" stroke-linejoin="round"/>
</svg>
