<svg width="30" height="30" viewBox="0 0 30 30" fill="none" xmlns="http://www.w3.org/2000/svg">
<path d="M1 15C1 11.2615 1 9.3923 1.80385 8C2.33046 7.08788 3.08788 6.33046 4 5.80385C5.3923 5 7.26154 5 11 5H19C22.7385 5 24.6077 5 26 5.80385C26.9121 6.33046 27.6695 7.08788 28.1962 8C29 9.3923 29 11.2615 29 15V15C29 18.7385 29 20.6077 28.1962 22C27.6695 22.9121 26.9121 23.6695 26 24.1962C24.6077 25 22.7385 25 19 25H11C7.26154 25 5.3923 25 4 24.1962C3.08788 23.6695 2.33046 22.9121 1.80385 22C1 20.6077 1 18.7385 1 15V15Z" stroke="black" stroke-linecap="round" stroke-linejoin="round"/>
<path d="M19 15L11.5 19.3301L11.5 10.6699L19 15Z" stroke="black" stroke-linecap="round" stroke-linejoin="round"/>
</svg>
