<?xml version="1.0" standalone="no"?>
<!DOCTYPE svg PUBLIC "-//W3C//DTD SVG 20010904//EN"
 "http://www.w3.org/TR/2001/REC-SVG-20010904/DTD/svg10.dtd">
<svg version="1.0" xmlns="http://www.w3.org/2000/svg"
 width="700.000000pt" height="700.000000pt" viewBox="0 0 700.000000 700.000000"
 preserveAspectRatio="xMidYMid meet">
<g transform="translate(0.000000,700.000000) scale(0.100000,-0.100000)"
fill="#000000" stroke="none">
<path d="M2017 5038 c-3 -944 -5 -1101 -18 -1148 -62 -223 -200 -330 -424
-330 -193 0 -354 77 -506 242 l-55 61 -223 -242 -224 -243 79 -80 c172 -175
328 -275 527 -338 249 -80 554 -81 799 -4 95 30 211 87 281 137 65 46 271 250
308 304 69 99 113 213 145 373 16 77 18 196 21 1223 l4 1137 -355 0 -355 0 -4
-1092z"/>
<path d="M3400 4550 l0 -1581 878 4 c841 4 881 5 987 25 283 54 469 143 620
297 148 151 215 325 215 560 0 335 -158 561 -518 742 l-83 41 53 31 c137 79
234 182 299 317 55 115 72 196 73 344 1 148 -10 202 -69 326 -118 246 -323
383 -675 450 -86 16 -175 19 -937 22 l-843 3 0 -1581z m1552 955 c192 -40 280
-144 265 -314 -14 -160 -75 -234 -237 -287 -49 -16 -104 -18 -467 -22 l-413
-3 0 320 0 321 393 0 c301 0 408 -4 459 -15z m150 -1278 c92 -21 147 -48 197
-93 71 -63 94 -126 93 -250 -2 -122 -48 -208 -145 -268 -87 -54 -225 -66 -744
-66 l-403 0 0 351 0 351 468 -5 c371 -4 481 -8 534 -20z"/>
<path d="M870 1115 l0 -215 1530 0 1530 0 0 215 0 215 -1530 0 -1530 0 0 -215z"/>
</g>
</svg>
