<?xml version="1.0" encoding="iso-8859-1"?>
<!-- Generator: Adobe Illustrator 18.0.0, SVG Export Plug-In . SVG Version: 6.00 Build 0)  -->
<!DOCTYPE svg PUBLIC "-//W3C//DTD SVG 1.1//EN" "http://www.w3.org/Graphics/SVG/1.1/DTD/svg11.dtd">
<svg version="1.1" id="Capa_1" xmlns="http://www.w3.org/2000/svg" xmlns:xlink="http://www.w3.org/1999/xlink" x="0px" y="0px"
	 viewBox="0 0 315.104 315.104" style="enable-background:new 0 0 315.104 315.104;" xml:space="preserve">
<g>
	<path d="M84.673,69.664c3.303,0,5.995,2.651,6.045,5.954l1.709,113.255c5.229-1.488,13.528-2.092,23.564-2.092
		c15.16,0,34.279,1.379,52.75,3.175c1.755,0.171,3.51,0.255,5.258,0.255c12.084,0,23.867-4.038,33.454-11.566
		c6.661-5.231,26.514-21.088,26.514-21.088c1.338-1.064,2.935-1.581,4.522-1.581c2.14,0,4.26,0.94,5.695,2.745
		c2.501,3.143,1.979,7.717-1.164,10.217l-8.422,7.025c-0.81,0.676-1.102,1.791-0.726,2.777c0.366,0.96,1.286,1.591,2.308,1.591
		c0.027,0,0.055,0,0.082-0.001l47.03-1.553c0.012,0,0.023,0,0.035,0c4,0,7.248,2.344,7.262,6.348
		c0.009,2.614-1.367,4.005-3.433,5.294l5.653-0.02c0.009,0,0.017,0,0.026,0c4.004,0,7.257,3.239,7.271,7.246
		c0.014,4.016-3.23,7.283-7.246,7.297l-6.929,0.024c2.075,1.275,3.467,3.555,3.476,6.169c0.014,4.016-3.231,7.283-7.247,7.297
		l-12.066,0.042c2.075,1.275,3.467,2.656,3.476,5.27c0.014,4.016-3.231,5.485-7.246,5.499c-1.049,0.004-3.217,0.054-6.363,0.054
		c-8.879,0-25.536-0.401-46.709-3.38c-3.847-0.541-7.697-0.813-11.542-0.813c-5.592,0-11.172,0.576-16.702,1.735
		c-30.089,6.308-66.063,13.827-97.788,18.23c-1.803,0.25-3.596,0.372-5.369,0.372c-18.128,0-34.191-12.724-37.995-30.942
		L15.132,76.945c-0.372-1.782,0.078-3.636,1.226-5.049c1.148-1.413,2.871-2.233,4.692-2.233H84.673 M33.196,97.242
		c3.724,0,6.743-3.019,6.743-6.743c0-3.724-3.019-6.743-6.743-6.743c-3.724,0-6.743,3.019-6.743,6.743
		C26.453,94.223,29.472,97.242,33.196,97.242 M45.16,158.821c0.412,0,0.829-0.038,1.248-0.116c3.66-0.685,6.073-4.207,5.388-7.867
		l-8.26-44.161c-0.606-3.242-3.445-5.504-6.625-5.503c-0.41,0-0.826,0.038-1.243,0.115c-3.66,0.685-6.073,4.207-5.388,7.867
		l8.26,44.161C39.146,156.559,41.978,158.821,45.16,158.821 M84.673,54.664H21.05c-6.365,0-12.317,2.833-16.332,7.772
		c-4.014,4.939-5.571,11.345-4.269,17.576l28.721,137.553c2.535,12.141,9.241,23.117,18.884,30.906
		c9.556,7.719,21.558,11.971,33.794,11.971c2.472,0,4.972-0.173,7.432-0.514c32.549-4.517,69.286-12.218,98.804-18.406
		c4.481-0.939,9.065-1.416,13.624-1.416c3.127,0,6.307,0.224,9.452,0.667c16.393,2.307,33.267,3.526,48.798,3.526
		c2.199,0,3.975-0.024,5.15-0.04c0.529-0.007,0.952-0.013,1.264-0.014c5.157-0.018,9.659-1.281,13.382-3.754
		c2.901-1.927,5.161-4.489,6.666-7.471c8.269-1.619,14.908-7.826,17.16-15.844c6.889-3.812,11.553-11.166,11.524-19.58
		c-0.027-7.896-4.195-14.841-10.435-18.776c-2.684-8.895-10.98-15.04-21.343-15.04c-0.03,0-0.096,0-0.126,0
		c-0.135,0.001-0.269,0.003-0.404,0.008l-22.066,0.729c0.319-5.476-1.366-10.807-4.808-15.133
		c-4.247-5.341-10.602-8.406-17.433-8.406c-5.011,0-9.933,1.719-13.859,4.841c-0.223,0.178-19.905,15.897-26.441,21.03
		c-6.868,5.394-15.459,8.364-24.19,8.364c-1.265,0-2.546-0.062-3.807-0.185c-22.149-2.154-40.385-3.246-54.202-3.246
		c-3.171,0-6.103,0.055-8.818,0.166l-1.457-96.555C105.544,63.963,96.104,54.664,84.673,54.664L84.673,54.664z"/>
</g>
<g>
</g>
<g>
</g>
<g>
</g>
<g>
</g>
<g>
</g>
<g>
</g>
<g>
</g>
<g>
</g>
<g>
</g>
<g>
</g>
<g>
</g>
<g>
</g>
<g>
</g>
<g>
</g>
<g>
</g>
</svg>
