<?xml version="1.0" encoding="utf-8"?>
<!-- Generator: Adobe Illustrator 24.0.3, SVG Export Plug-In . SVG Version: 6.00 Build 0)  -->
<svg version="1.1" id="Layer_1" xmlns="http://www.w3.org/2000/svg" xmlns:xlink="http://www.w3.org/1999/xlink" x="0px" y="0px"
	 viewBox="0 0 662.2 671.4" style="enable-background:new 0 0 662.2 671.4;" xml:space="preserve">
<style type="text/css">
	.st0{fill:#EC297B;}
	.st1{fill:#282C34;}
</style>
<rect x="-6.4" y="-0.1" class="st0" width="673.8" height="673.8"/>
<g>
	<path class="st1" d="M387.6,549c-1.4,0-3,0-4.5,0C384.6,549,386.2,549,387.6,549z"/>
	<g>
		<path class="st1" d="M289.6,583.2L289.6,583.2L289.6,583.2L289.6,583.2z"/>
		<path class="st1" d="M373.6,592.7c-4.7-9.5-8.7-19.4-13-29.2l0,0c0-0.8,0-1.8,0-2.6l0,0c0-0.6,0-1.2,0-1.6
			c0.2-1.8,0.6-3.6,0.8-5.3c0.4-2.6,0.8-5.1,1.4-7.7c3-14.6,6.1-29,9.1-43.5c0.6-2.2,1.2-4.3,1.8-6.5c-2.8,0.6-5.9,1-8.7,1.6
			c-1,0-2.2,0-3.2,0c-1.4-0.6-2.6-1.4-4.1-2c-0.8,4.3-1.6,8.3-2.4,12.6c-0.6,5.3-1,10.5-1.6,15.6c-0.4,1.8-0.6,3.6-1,5.5
			c-2.6,8.3-5.1,16.4-7.7,24.7c-0.6,0.8-1.2,1.4-1.8,2.2c-3.6,2.4-7.1,5.5-11.1,7.3c-13.6,6.3-27.3,12.2-40.9,18.2
			c-0.6,0.4-1,1-1.6,1.4c-0.4,1.4-0.6,2.8-1,4.3c3.8,4.9,9.1,2.6,14,2.4l0,0c3.6,0,7.5-0.2,11.1-0.2c-0.2-0.2-0.4-0.4-0.8-0.6
			c0.2,0.2,0.4,0.4,0.8,0.6c1.2,0.8,2.4,1.4,3.4,2.4c7.9,9.5,17.4,9.5,27.7,5.1c8.5-3.6,15.6,0.2,22.7,4.3c1.4,0,2.8,0,4.3,0
			C375,599.2,375.4,596.6,373.6,592.7z M310.8,587.9c0.4,0.2,1,0.4,1.4,0.8C311.8,588.5,311.4,588.1,310.8,587.9z"/>
	</g>
	<path class="st1" d="M261.2,526.7c0-0.2-0.2-0.4-0.2-0.8c-2-6.9-2.6-14.8-3.2-21.9c-1.2-14.6-0.4-29.4,2-43.7
		c-0.2,0.8-9.7,2.4-11.3,3c-2.2,1.6-4.7,3.4-6.9,5.1c2.2-1.6,4.7-3.4,6.9-5.1c-2.6,0-5.3-0.2-7.7-0.2c0,1.4-0.2,2.8-0.2,4.3
		c0.2,0.8,0.2,1.6,0.4,2.4c2.2,14.4,2.6,29,1,43.3c-0.4,2.8-0.6,5.7-2,8.3c-2.2,4.3-7.5,6.1-11.9,7.5c-16,4.5-33,6.7-49.4,9.9
		c-1.8,0.4-3.6,0.8-5.3,1.6c-5.1,3.2-1.6,6.1,2.2,7.5c2,0.8,4.1,1,6.3,1.2c2.8,0.2,2.2,0.8,1.2,2.8c-3.2,5.7-2,7.9,4.7,8.3
		c7.9,0.4,16,0.2,23.9,0.2c0.4,0,1,0.2,1.4,0.2c3.8,8.1,6.3,9.1,13,5.3c1-0.6,1.8-1.4,2.6-2.2c1-0.6,1.8-1.2,2.8-1.8l0,0
		c1.4-1,2.8-1.8,4.5-2.8h-0.2c1-0.6,1.8-1,2.8-1.6l0,0c1.4-1,3-1.8,4.5-2.8c0.6,0,1-0.2,1.2-0.6c0.4-0.4,0.8-0.6,1.2-1
		c0.6-0.4,1-0.8,1.6-1.2c0.8-0.6,1.8-1.2,2.6-1.8c0.6-0.4,1-0.8,1.6-1.2c1.2-1,2.4-1.8,3.6-2.8c0.6-0.6,1.2-1.2,2-1.8
		c0.6-0.8,1.2-1.8,1.8-2.6c0.4-0.6,0.6-1.2,1-1.8c0.4-0.2,0.6-0.6,0.8-1c0.4-0.2,0.8-0.6,0.8-1C266.1,535.2,262.6,530.7,261.2,526.7
		z"/>
	<path class="st1" d="M470.8,284.2c-0.2-2.4-0.8-4.5-1.8-6.3c-5.7-10.9-21.3-11.9-31.2-7.7c-6.1,2.6-11.9,6.3-18.4,7.7
		c-9.3,2-19-1.2-27.9-4.5c-29.4-10.3-58.7-20.5-88.3-30.6c-6.3-2.2-9.1-4.7-8.9-11.5c0.2-6.1,0.4-11.7,0-17.8
		c-0.8-14.4-1.4-29-0.2-43.5c2-22.3,7.5-45,3.2-67.2c-4.3-23.1-22.7-51.8-46.8-58.5c-4.9-1.4-9.9-1-14.6,0.6
		c-6.1,2-11.3,6.1-15.4,10.7S213,66.5,213.4,73c0.8-0.2,1.6-0.4,2.4-0.6c9.3-2,16.4,0.4,20.7,9.7c2.8,6.3,6.5,12.4,9.9,18.6
		c-2.2,1.8-3.8,4.7-4.5,8.7c0.6-4.1,11.9,1.2,13,2.8c7.1,10.9-3,31-5.9,41.7c-8.5,32.6-15,66.6-30.8,96.6
		c-3.2,6.1-7.9,11.3-11.5,17.4c-4.1,6.9-7.7,14-10.9,21.3c-6.1,14.8-8.7,30.6-4.5,46.2c3.8,14.4,8.9,28.8,14.8,42.5
		c7.5,17.6,11.7,35.8,15.6,54.7c1.8,9.1,7.1,17.8,11.3,26.3c1.2,2.6,4.9,3.8,7.5,5.9c2.6,0,5.3,0.2,7.7,0.2c3.8-1,7.5-2.2,11.3-3.2
		c8.5-4.7,16.4-11.7,25.5-13.6c6.5-1.4,14.6,3.8,21.7,6.7c8.3,3.2,15.2,8.1,21.1,14.8c6.1,6.9,12.8,13.2,19.4,19.4
		c3,2.8,6.7,5.3,9.9,8.1c1.4,0.6,2.6,1.4,4.1,2c1,0,2.2,0,3.2,0c2.8-0.6,5.9-1,8.7-1.6c10.9-8.1,16.4-20.3,22.3-32
		c10.5-21.9,21.1-43.5,32-65.2c5.5-10.7,12.2-22.1,13.8-34.4c1.8-13.2,7.9-21.7,15-32.8C465.6,319.5,472,301.1,470.8,284.2z"/>
	<path class="st1" d="M196.4,119.4c5.3-14.2,10.3-28.4,15.6-42.5c0.4-0.6,0.6-2.6,1.2-3.2c0.8-0.8,0.6-1,3-1.4
		c9.3-2,16.4,0.6,20.7,9.9c3.4,7.5,7.7,14.6,11.5,21.7c-6.5,5.7-13,11.5-19.4,17.2c-2,2-4.3,3.8-6.3,5.9c-8.9,6.1-26.5,4.1-28.2,2.6
		C190.9,126.1,195.6,122.8,196.4,119.4z"/>
	<polygon class="st0" points="253.7,58.1 251.6,71.2 246.8,76.3 242.5,68.2 	"/>
</g>
</svg>
