<?xml version="1.0" encoding="UTF-8"?>
<svg width="301px" height="559px" viewBox="0 0 301 559" version="1.1" xmlns="http://www.w3.org/2000/svg" xmlns:xlink="http://www.w3.org/1999/xlink">
    <title>Slice 1</title>
    <g id="Page-1" stroke="none" stroke-width="1" fill="none" fill-rule="evenodd">
        <g id="cai" fill-rule="nonzero">
            <g id="Group">
                <path d="M217.6,506 C216.2,506 214.6,506 213.1,506 C214.6,506 216.2,506 217.6,506 Z" id="Path" fill="#282C34"></path>
                <g transform="translate(118.000000, 452.000000)" fill="#282C34" id="Shape">
                    <path d="M85.6,97.7 C80.9,88.2 76.9,78.3 72.6,68.5 L72.6,68.5 C72.6,67.7 72.6,66.7 72.6,65.9 L72.6,65.9 C72.6,65.3 72.6,64.7 72.6,64.3 C72.8,62.5 73.2,60.7 73.4,59 C73.8,56.4 74.2,53.9 74.8,51.3 C77.8,36.7 80.9,22.3 83.9,7.8 C84.5,5.6 85.1,3.5 85.7,1.3 C82.9,1.9 79.8,2.3 77,2.9 C76,2.9 74.8,2.9 73.8,2.9 C72.4,2.3 71.2,1.5 69.7,0.9 C68.9,5.2 68.1,9.2 67.3,13.5 C66.7,18.8 66.3,24 65.7,29.1 C65.3,30.9 65.1,32.7 64.7,34.6 C62.1,42.9 59.6,51 57,59.3 C56.4,60.1 55.8,60.7 55.2,61.5 C51.6,63.9 48.1,67 44.1,68.8 C30.5,75.1 16.8,81 3.2,87 C2.6,87.4 2.2,88 1.6,88.4 C1.2,89.8 1,91.2 0.6,92.7 C4.4,97.6 9.7,95.3 14.6,95.1 L14.6,95.1 C18.2,95.1 22.1,94.9 25.7,94.9 C25.5,94.7 25.3,94.5 24.9,94.3 C25.1,94.5 25.3,94.7 25.7,94.9 C26.9,95.7 28.1,96.3 29.1,97.3 C37,106.8 46.5,106.8 56.8,102.4 C65.3,98.8 72.4,102.6 79.5,106.7 C80.9,106.7 82.3,106.7 83.8,106.7 C87,104.2 87.4,101.6 85.6,97.7 Z M22.8,92.9 C23.2,93.1 23.8,93.3 24.2,93.7 C23.8,93.5 23.4,93.1 22.8,92.9 Z"></path>
                </g>
                <path d="M91.2,483.7 C91.2,483.5 91,483.3 91,482.9 C89,476 88.4,468.1 87.8,461 C86.6,446.4 87.4,431.6 89.8,417.3 C89.6,418.1 80.1,419.7 78.5,420.3 C76.3,421.9 73.8,423.7 71.6,425.4 C73.8,423.8 76.3,422 78.5,420.3 C75.9,420.3 73.2,420.1 70.8,420.1 C70.8,421.5 70.6,422.9 70.6,424.4 C70.8,425.2 70.8,426 71,426.8 C73.2,441.2 73.6,455.8 72,470.1 C71.6,472.9 71.4,475.8 70,478.4 C67.8,482.7 62.5,484.5 58.1,485.9 C42.1,490.4 25.1,492.6 8.7,495.8 C6.9,496.2 5.1,496.6 3.4,497.4 C-1.7,500.6 1.8,503.5 5.6,504.9 C7.6,505.7 9.7,505.9 11.9,506.1 C14.7,506.3 14.1,506.9 13.1,508.9 C9.9,514.6 11.1,516.8 17.8,517.2 C25.7,517.6 33.8,517.4 41.7,517.4 C42.1,517.4 42.7,517.6 43.1,517.6 C46.9,525.7 49.4,526.7 56.1,522.9 C57.1,522.3 57.9,521.5 58.7,520.7 C59.7,520.1 60.5,519.5 61.5,518.9 L61.5,518.9 C62.9,517.9 64.3,517.1 66,516.1 L65.8,516.1 C66.8,515.5 67.6,515.1 68.6,514.5 L68.6,514.5 C70,513.5 71.6,512.7 73.1,511.7 C73.7,511.7 74.1,511.5 74.3,511.1 C74.7,510.7 75.1,510.5 75.5,510.1 C76.1,509.7 76.5,509.3 77.1,508.9 C77.9,508.3 78.9,507.7 79.7,507.1 C80.3,506.7 80.7,506.3 81.3,505.9 C82.5,504.9 83.7,504.1 84.9,503.1 C85.5,502.5 86.1,501.9 86.9,501.3 C87.5,500.5 88.1,499.5 88.7,498.7 C89.1,498.1 89.3,497.5 89.7,496.9 C90.1,496.7 90.3,496.3 90.5,495.9 C90.9,495.7 91.3,495.3 91.3,494.9 C96.1,492.2 92.6,487.7 91.2,483.7 Z" id="Path" fill="#282C34"></path>
                <path d="M300.8,241.2 C300.6,238.8 300,236.7 299,234.9 C293.3,224 277.7,223 267.8,227.2 C261.7,229.8 255.9,233.5 249.4,234.9 C240.1,236.9 230.4,233.7 221.5,230.4 C192.1,220.1 162.8,209.9 133.2,199.8 C126.9,197.6 124.1,195.1 124.3,188.3 C124.5,182.2 124.7,176.6 124.3,170.5 C123.5,156.1 122.9,141.5 124.1,127 C126.1,104.7 131.6,82 127.3,59.8 C123,36.7 104.6,8 80.5,1.3 C75.6,-0.1 70.6,0.3 65.9,1.9 C59.8,3.9 54.6,8 50.5,12.6 C46.4,17.2 43,23.5 43.4,30 C44.2,29.8 45,29.6 45.8,29.4 C55.1,27.4 62.2,29.8 66.5,39.1 C69.3,45.4 73,51.5 76.4,57.7 C74.2,59.5 72.6,62.4 71.9,66.4 C72.5,62.3 83.8,67.6 84.9,69.2 C92,80.1 81.9,100.2 79,110.9 C70.5,143.5 64,177.5 48.2,207.5 C45,213.6 40.3,218.8 36.7,224.9 C32.6,231.8 29,238.9 25.8,246.2 C19.7,261 17.1,276.8 21.3,292.4 C25.1,306.8 30.2,321.2 36.1,334.9 C43.6,352.5 47.8,370.7 51.7,389.6 C53.5,398.7 58.8,407.4 63,415.9 C64.2,418.5 67.9,419.7 70.5,421.8 C73.1,421.8 75.8,422 78.2,422 C82,421 85.7,419.8 89.5,418.8 C98,414.1 105.9,407.1 115,405.2 C121.5,403.8 129.6,409 136.7,411.9 C145,415.1 151.9,420 157.8,426.7 C163.9,433.6 170.6,439.9 177.2,446.1 C180.2,448.9 183.9,451.4 187.1,454.2 C188.5,454.8 189.7,455.6 191.2,456.2 C192.2,456.2 193.4,456.2 194.4,456.2 C197.2,455.6 200.3,455.2 203.1,454.6 C214,446.5 219.5,434.3 225.4,422.6 C235.9,400.7 246.5,379.1 257.4,357.4 C262.9,346.7 269.6,335.3 271.2,323 C273,309.8 279.1,301.3 286.2,290.2 C295.6,276.5 302,258.1 300.8,241.2 Z" id="Path" fill="#282C34"></path>
                <path d="M26.4,76.4 C31.7,62.2 36.7,48 42,33.9 C42.4,33.3 42.6,31.3 43.2,30.7 C44,29.9 43.8,29.7 46.2,29.3 C55.5,27.3 62.6,29.9 66.9,39.2 C70.3,46.7 74.6,53.8 78.4,60.9 C71.9,66.6 65.4,72.4 59,78.1 C57,80.1 54.7,81.9 52.7,84 C43.8,90.1 26.2,88.1 24.5,86.6 C20.9,83.1 25.6,79.8 26.4,76.4 Z" id="Path" fill="#282C34"></path>
                <polygon id="Path" fill="#EC297B" points="83.7 15.1 81.6 28.2 76.8 33.3 72.5 25.2"></polygon>
            </g>
        </g>
    </g>
</svg>