<?xml version="1.0" encoding="UTF-8"?>
<svg width="301px" height="559px" viewBox="0 0 301 559" version="1.1" xmlns="http://www.w3.org/2000/svg" xmlns:xlink="http://www.w3.org/1999/xlink">
    <title>Slice 1</title>
    <g id="Page-1" stroke="none" stroke-width="1" fill="none" fill-rule="evenodd">
        <g id="cai" fill="#282C34" fill-rule="nonzero">
            <g id="Group">
                <path d="M217.6,506 C216.2,506 214.6,506 213.1,506 C214.6,506 216.2,506 217.6,506 Z" id="Path"></path>
                <g transform="translate(118.000000, 452.000000)" id="Shape">
                    <path d="M85.6,97.7 C80.9,88.2 76.9,78.3 72.6,68.5 L72.6,68.5 C72.6,67.7 72.6,66.7 72.6,65.9 L72.6,65.9 C72.6,65.3 72.6,64.7 72.6,64.3 C72.8,62.5 73.2,60.7 73.4,59 C73.8,56.4 74.2,53.9 74.8,51.3 C77.8,36.7 80.9,22.3 83.9,7.8 C84.5,5.6 85.1,3.5 85.7,1.3 C82.9,1.9 79.8,2.3 77,2.9 C76,2.9 74.8,2.9 73.8,2.9 C72.4,2.3 71.2,1.5 69.7,0.9 C68.9,5.2 68.1,9.2 67.3,13.5 C66.7,18.8 66.3,24 65.7,29.1 C65.3,30.9 65.1,32.7 64.7,34.6 C62.1,42.9 59.6,51 57,59.3 C56.4,60.1 55.8,60.7 55.2,61.5 C51.6,63.9 48.1,67 44.1,68.8 C30.5,75.1 16.8,81 3.2,87 C2.6,87.4 2.2,88 1.6,88.4 C1.2,89.8 1,91.2 0.6,92.7 C4.4,97.6 9.7,95.3 14.6,95.1 L14.6,95.1 C18.2,95.1 22.1,94.9 25.7,94.9 C25.5,94.7 25.3,94.5 24.9,94.3 C25.1,94.5 25.3,94.7 25.7,94.9 C26.9,95.7 28.1,96.3 29.1,97.3 C37,106.8 46.5,106.8 56.8,102.4 C65.3,98.8 72.4,102.6 79.5,106.7 C80.9,106.7 82.3,106.7 83.8,106.7 C87,104.2 87.4,101.6 85.6,97.7 Z M22.8,92.9 C23.2,93.1 23.8,93.3 24.2,93.7 C23.8,93.5 23.4,93.1 22.8,92.9 Z"></path>
                </g>
                <path d="M80.5,1.3 C104.6,8 123,36.7 127.3,59.8 C130.121875,74.36875 128.723242,89.152832 126.862991,103.897885 L126.594507,106.004028 C125.691797,113.023438 124.725,120.03125 124.1,127 C122.9,141.5 123.5,156.1 124.3,170.5 C124.7,176.6 124.5,182.2 124.3,188.3 C124.1,195.1 126.9,197.6 133.2,199.8 C162.8,209.9 192.1,220.1 221.5,230.4 C230.4,233.7 240.1,236.9 249.4,234.9 C255.9,233.5 261.7,229.8 267.8,227.2 C277.7,223 293.3,224 299,234.9 C300,236.7 300.6,238.8 300.8,241.2 C302,258.1 295.6,276.5 286.2,290.2 C279.1,301.3 273,309.8 271.2,323 C269.6,335.3 262.9,346.7 257.4,357.4 C247.59,376.93 238.023,396.379 228.5532,416.0386 L225.4,422.6 L224.780174,423.833227 C219.107387,435.151093 213.617544,446.784211 203.1,454.6 C200.7,455.114286 198.079592,455.481633 195.616618,455.953936 L194.4,456.2 L191.2,456.2 C189.7,455.6 188.5,454.8 187.1,454.2 C183.9,451.4 180.2,448.9 177.2,446.1 C170.6,439.9 163.9,433.6 157.8,426.7 C151.9,420 145,415.1 136.7,411.9 C134.556604,411.024528 132.322072,409.939445 130.067937,408.889612 L129.221858,408.498055 C124.282663,406.229192 119.292453,404.275472 115,405.2 C106.111628,407.055814 98.3680909,413.777177 90.0920724,418.468454 L89.5593996,418.765089 L89.3506045,420.106354 C87.304086,433.531192 86.6783261,447.352968 87.8,461 C88.4,468.1 89,476 91,482.9 C91,483.3 91.2,483.5 91.2,483.7 C91.452459,484.421311 91.7732061,485.158882 92.1012565,485.899225 L92.2805508,486.303242 L92.4590944,486.707322 C93.8194303,489.804273 94.9196721,492.863934 91.3,494.9 C91.3,495.3 90.9,495.7 90.5,495.9 C90.3,496.3 90.1,496.7 89.7,496.9 C89.3,497.5 89.1,498.1 88.7,498.7 C88.1,499.5 87.5,500.5 86.9,501.3 C86.1,501.9 85.5,502.5 84.9,503.1 C83.7,504.1 82.5,504.9 81.3,505.9 C80.7,506.3 80.3,506.7 79.7,507.1 C78.9,507.7 77.9,508.3 77.1,508.9 C76.5,509.3 76.1,509.7 75.5,510.1 C75.1,510.5 74.7,510.7 74.3,511.1 C74.1,511.5 73.7,511.7 73.1,511.7 C71.8142857,512.557143 70.455102,513.267347 69.2113703,514.082507 L68.6,514.5 L68.1148148,514.785185 C67.4851852,515.148148 66.9148148,515.451852 66.2851852,515.814815 L65.8,516.1 L66,516.1 C64.4888889,516.988889 63.2148148,517.719753 61.9670782,518.573525 L61.5,518.9 L60.9208,519.26 C60.172,519.74 59.5,520.22 58.7,520.7 C57.9,521.5 57.1,522.3 56.1,522.9 C49.4,526.7 46.9,525.7 43.1,517.6 C42.7,517.6 42.1,517.4 41.7,517.4 C33.8,517.4 25.7,517.6 17.8,517.2 C11.1,516.8 9.9,514.6 13.1,508.9 C14.1,506.9 14.7,506.3 11.9,506.1 C9.7,505.9 7.6,505.7 5.6,504.9 C1.8,503.5 -1.7,500.6 3.4,497.4 C5.1,496.6 6.9,496.2 8.7,495.8 C25.1,492.6 42.1,490.4 58.1,485.9 C62.5,484.5 67.8,482.7 70,478.4 C71.4,475.8 71.6,472.9 72,470.1 C73.6,455.8 73.2,441.2 71,426.8 C70.8,426 70.8,425.2 70.6,424.4 C70.6,423.505078 70.6711899,422.64575 70.7286237,421.800781 L70.5,421.8 C67.9,419.7 64.2,418.5 63,415.9 C58.8,407.4 53.5,398.7 51.7,389.6 C47.8,370.7 43.6,352.5 36.1,334.9 C30.2,321.2 25.1,306.8 21.3,292.4 C17.1,276.8 19.7,261 25.8,246.2 C29,238.9 32.6,231.8 36.7,224.9 C40.3,218.8 45,213.6 48.2,207.5 C64,177.5 70.5,143.5 79,110.9 C81.9,100.2 92,80.1 84.9,69.2 C84.0618061,67.9808089 77.3011301,64.6132665 73.8649892,64.89335 C68.88076,69.2935081 63.9109399,73.7261941 59,78.1 C57,80.1 54.7,81.9 52.7,84 C43.8,90.1 26.2,88.1 24.5,86.6 C22.3653846,84.5246795 23.1489511,82.5196766 24.3073197,80.5224492 L24.5090941,80.1801319 C24.5772597,80.0660437 24.6461746,79.9519693 24.7153642,79.8378969 L24.9345128,79.4771746 C25.5548788,78.4550702 26.1571429,77.4321429 26.4,76.4 C31.7,62.2 36.7,48 42,33.9 C42.4,33.3 42.6,31.3 43.2,30.7 C43.6322259,30.2677741 43.7725468,30.0106912 44.1887227,29.8025824 L43.4,30 C43,23.5 46.4,17.2 50.5,12.6 C54.6,8 59.8,3.9 65.9,1.9 C70.6,0.3 75.6,-0.1 80.5,1.3 Z M76.2119864,421.96456 L75.5533528,422.443732 C74.2122449,423.42449 72.8571429,424.428571 71.6,425.4 C73.090191,424.316225 74.7180269,423.140686 76.2970375,421.96662 C76.2683061,421.966295 76.2401582,421.965433 76.2119864,421.96456 Z M83.7,15.1 L72.5,25.2 L76.8,33.3 L81.6,28.2 L83.7,15.1 Z" id="Combined-Shape"></path>
            </g>
        </g>
    </g>
</svg>