<?xml version="1.0" encoding="utf-8"?>
<!-- Generator: Adobe Illustrator 24.2.3, SVG Export Plug-In . SVG Version: 6.00 Build 0)  -->
<svg version="1.1" id="Layer_1" xmlns="http://www.w3.org/2000/svg" xmlns:xlink="http://www.w3.org/1999/xlink" x="0px" y="0px"
	 viewBox="0 0 64 64" style="enable-background:new 0 0 64 64;" xml:space="preserve">
<style type="text/css">
	.st0{fill:#000000;}
</style>
<g>
	<g id="Icon-Share-Apple" transform="translate(332.000000, 375.000000)">
		<polyline id="Fill-74" class="st0" points="-292.6,-355.7 -300,-363.1 -307.4,-355.7 -309.2,-357.5 -300,-366.8 -290.8,-357.5
			-292.6,-355.7 		"/>
		<polygon id="Fill-75" class="st0" points="-301.4,-364.9 -298.6,-364.9 -298.6,-335.9 -301.4,-335.9 		"/>
		<path id="Fill-76" class="st0" d="M-286.2-319.2h-27.7c-2.3,0-4.2-1.9-4.2-4.2v-24.9c0-2.3,1.9-4.2,4.2-4.2h9.7v2.8h-9.7
			c-0.8,0-1.4,0.6-1.4,1.4v24.9c0,0.8,0.6,1.4,1.4,1.4h27.7c0.8,0,1.4-0.6,1.4-1.4v-24.9c0-0.8-0.6-1.4-1.4-1.4h-9.7v-2.8h9.7
			c2.3,0,4.2,1.9,4.2,4.2v24.9C-282-321.1-283.9-319.2-286.2-319.2"/>
	</g>
</g>
</svg>
