<?xml version="1.0" encoding="utf-8"?>
<!-- Generator: Adobe Illustrator 24.2.3, SVG Export Plug-In . SVG Version: 6.00 Build 0)  -->
<svg version="1.1" id="Layer_1" xmlns="http://www.w3.org/2000/svg" xmlns:xlink="http://www.w3.org/1999/xlink" x="0px" y="0px"
	 viewBox="0 0 64 64" style="enable-background:new 0 0 64 64;" xml:space="preserve">
<style type="text/css">
	.st0{fill:#FFFFFF;}
</style>
<g>
	<g id="Icon-Refresh" transform="translate(30.000000, 432.000000)">
		<path id="Fill-77" class="st0" d="M2-379.3c-11.4,0-20.7-9.3-20.7-20.7c0-5,1.8-9.9,5.2-13.7l2.2,2c-2.9,3.2-4.4,7.4-4.4,11.7
			c0,9.8,7.9,17.7,17.7,17.7c2.6,0,5.1-0.5,7.4-1.6l1.2,2.7C7.9-379.9,5-379.3,2-379.3"/>
		<path id="Fill-78" class="st0" d="M17.4-386.2l-2.2-2c2.9-3.2,4.5-7.4,4.5-11.8c0-9.8-7.9-17.7-17.7-17.7c-2.6,0-5.1,0.5-7.4,1.6
			l-1.2-2.7c2.7-1.2,5.6-1.9,8.6-1.9c11.4,0,20.7,9.3,20.7,20.7C22.7-394.9,20.8-390,17.4-386.2"/>
		<polyline id="Fill-79" class="st0" points="-9.2,-401.6 -12.4,-401.6 -12.4,-411.2 -22,-411.2 -22,-414.4 -9.2,-414.4 
			-9.2,-401.6 		"/>
		<polyline id="Fill-80" class="st0" points="26,-385.6 13.2,-385.6 13.2,-398.4 16.4,-398.4 16.4,-388.8 26,-388.8 26,-385.6 		"/>
	</g>
</g>
</svg>
