<svg width="30" height="30" viewBox="0 0 30 30" fill="none" xmlns="http://www.w3.org/2000/svg">
<path d="M1 3C1 1.89543 1.89543 1 3 1H15H26L29 4.5V9.5V27C29 28.1046 28.1046 29 27 29H3C1.89543 29 1 28.1046 1 27V3Z" stroke="white"/>
<path d="M6 1H22V10C22 10.5523 21.5523 11 21 11H7C6.44772 11 6 10.5523 6 10V1Z" stroke="white"/>
<path d="M6 16C6 15.4477 6.44772 15 7 15H23C23.5523 15 24 15.4477 24 16V25C24 25.5523 23.5523 26 23 26H7C6.44772 26 6 25.5523 6 25V16Z" stroke="white"/>
<rect x="15" y="3" width="3" height="6" fill="white"/>
</svg>
