<svg width="30" height="30" viewBox="0 0 30 30" fill="none" xmlns="http://www.w3.org/2000/svg">
<path d="M25 4L29 8L25 12" stroke="white" stroke-linecap="round" stroke-linejoin="round"/>
<path d="M25 18L29 22L25 26" stroke="white" stroke-linecap="round" stroke-linejoin="round"/>
<path d="M28 8C28 8 26.5536 8 21.25 8C15.9464 8 12.0893 22 6.78571 22C1.48214 22 0.999998 22 0.999998 22" stroke="white" stroke-linecap="round"/>
<path d="M28 22C28 22 26.5536 22 21.25 22C19.3784 22 17.6869 20.2565 16.0484 18M0.999998 8C0.999998 8 1.48214 8 6.78571 8C8.65734 8 10.3488 9.74353 11.9873 12" stroke="white" stroke-linecap="round"/>
</svg>
